<svg transform="scale(1)" version="1.1" id="Mz2yJuKObT" xmlns="http://www.w3.org/2000/svg" xmlns:xlink="http://www.w3.org/1999/xlink" x="0px" y="0px" viewBox="0 0 500 500" xml:space="preserve" class="pbimage_pbimage__wrapper__image__0LEis false"><title>Cybersecurity 1</title><style type="text/css"> .st0{fill:#99CE34;} .st1{opacity:0.32;fill:url(#SVGID_1_-Mz2yJuKObT);enable-background:new;} .st2{opacity:0.32;fill:url(#SVGID_00000060734686357628852630000004716102117278821558_-Mz2yJuKObT);enable-background:new;} .st3{fill:#68E1FD;} .st4{opacity:0.44;fill:#07375D;enable-background:new;} .st5{opacity:0.1;fill:#07375D;enable-background:new;} .st6{fill:#FF7F5C;} .st7{fill:#FFFFFF;} .st8{opacity:0.2;fill:#FFFFFF;enable-background:new;} .st9{fill:#2C2CB5;} .st10{fill:#5F5CEA;} .st11{fill:#FFC799;} .st12{fill:#07375D;}
 .st12{fill:#07375D;}
 .st11{fill:#FFC799;}
 .st10{fill:#5F5CEA;}
 .st9{fill:#2C2CB5;}
 .st8{fill:#FFFFFF;}
 .st7{fill:#FFFFFF;}
 .st6{fill:#FF7F5C;}
 .st5{fill:#07375D;}
 .st4{fill:#07375D;}
 .st3{fill:#68E1FD;}
 .st0{fill:#99CE34;}</style><g id="background"><path class="st0" d="M246.3,422L25,291.2c-7-4-13.1-10.5-6.2-14.7l222.1-128c3.3-2.1,8.4-3.4,11.8-1.4L485,281.9
		c7,4.1,8.3,15.5,1.3,19.6L275.5,421.8C266.5,427,255.4,427.1,246.3,422z" fill="#99CE34"></path><linearGradient id="SVGID_1_-Mz2yJuKObT" gradientUnits="userSpaceOnUse" x1="230.8601" y1="136.0499" x2="343.3601" y2="208.4599" gradientTransform="matrix(1 0 0 -1 0 502)"><stop offset="0" style="stop-color: rgb(0, 0, 0); stop-opacity: 0;"></stop><stop offset="0.99" style="stop-color: rgb(0, 0, 0);"></stop></linearGradient><polyline class="st1" points="359.2,320.5 225.7,399.8 176.5,363.8 324.3,274.8 	"></polyline><linearGradient id="SVGID_00000097479554602849335910000016223651109516079008_-Mz2yJuKObT" gradientUnits="userSpaceOnUse" x1="144.906" y1="162.7916" x2="200.176" y2="198.7216" gradientTransform="matrix(1 0 0 -1 0 502)"><stop offset="0" style="stop-color: rgb(0, 0, 0); stop-opacity: 0;"></stop><stop offset="0.99" style="stop-color: rgb(0, 0, 0);"></stop></linearGradient><path d="
		M163.8,363l97.4-58l-39.4-51.5l-119,71.6C122.4,338.9,143.2,350.8,163.8,363z" style="opacity: 0.32; fill: url(&quot;#SVGID_00000097479554602849335910000016223651109516079008_-Mz2yJuKObT&quot;);"></path></g><g id="gear_2"><path class="st3" d="M388.1,317.9c-0.1,0.2-0.7,2.5-1.2,2s-3,0.6-3,0.6l-7-9l0.9-2.9h6.3"></path><path class="st3" d="M354,279.3l-0.7-2.3l-7.4-4v-12.7c0-0.2,7.2,4.2,7.2,4.2l0.3-0.7c0.4-1.9,1.1-3.8,2.2-5.5l-5.2-9.6l6.6-5
		l5,9.9h0c1.8-0.4,3.7-0.4,5.5,0.1v-9.5l9.5,5.3v10c1.9,1.8,3.6,3.7,5.1,5.8l5.7-3.6l6.5,12.3l-5.1,4.1l0.4,2.1
		c0.7,2.2,1.2,4.4,1.6,6.6l7.6,4.2v12.6l-7.2-4.3c-0.3,2.3-1.1,4.5-2.3,6.4l5.4,9.2l-6.9,5.2l-4.8-9.5h-6v9.5l-9-5.5v-9.3
		c-2.1-2-3.9-4.3-5.5-6.8l-5.4,3.7l-6.6-12.5l5.5-4l-0.5-1.9C354.8,282.2,354.4,280.7,354,279.3z"></path><polyline class="st3" points="336.9,265.6 345.2,260.5 347.3,263.6 344.1,270.4 	"></polyline><polyline class="st3" points="347.8,307.4 354,304.8 354,301 	"></polyline><polygon class="st3" points="367.8,325.2 376.9,320 374.6,313.1 366.4,315.5 	"></polygon><polygon class="st3" points="357.1,243.7 348,248.9 353,258.9 358.4,259 359.7,248.9 	"></polygon><ellipse class="st3" transform="matrix(0.9307 -0.3657 0.3657 0.9307 -79.9072 152.5047)" cx="362.6" cy="287.2" rx="4.1" ry="7.1"></ellipse><polygon class="st3" points="377,249.5 367.9,254.7 358.4,249.5 367.5,244.2 	"></polygon><polygon class="st3" points="378.7,266.9 387.8,261.6 394.2,273.9 385.1,279.1 	"></polygon><polygon class="st3" points="394.6,314.8 385.5,320 378.6,325.2 387.7,320 	"></polygon><path class="st4" d="M388.1,317.9c-0.1,0.2-0.7,2.5-1.2,2s-3,0.6-3,0.6l-7-9l0.9-2.9h6.3"></path><path class="st3" d="M354,279.3l-0.7-2.3l-7.4-4v-12.7c0-0.2,7.2,4.2,7.2,4.2l0.3-0.7c0.4-1.9,1.1-3.8,2.2-5.5l-5.2-9.6l6.6-5
		l5,9.9h0c1.8-0.4,3.7-0.4,5.5,0.1v-9.5l9.5,5.3v10c1.9,1.8,3.6,3.7,5.1,5.8l5.7-3.6l6.5,12.3l-5.1,4.1l0.4,2.1
		c0.7,2.2,1.2,4.4,1.6,6.6l7.6,4.2v12.6l-7.2-4.3c-0.3,2.3-1.1,4.5-2.3,6.4l5.4,9.2l-6.9,5.2l-4.8-9.5h-6v9.5l-9-5.5v-9.3
		c-2.1-2-3.9-4.3-5.5-6.8l-5.4,3.7l-6.6-12.5l5.5-4l-0.5-1.9C354.8,282.2,354.4,280.7,354,279.3z"></path><polyline class="st4" points="336.9,265.6 345.2,260.5 347.3,263.6 344.1,270.4 	"></polyline><polyline class="st3" points="347.8,307.4 354,304.8 354,301 	"></polyline><polygon class="st3" points="367.8,325.2 376.9,320 374.6,313.1 366.4,315.5 	"></polygon><polygon class="st3" points="357.1,243.7 348,248.9 353,258.9 358.4,259 359.7,248.9 	"></polygon><ellipse class="st3" transform="matrix(0.9307 -0.3657 0.3657 0.9307 -79.9072 152.5047)" cx="362.6" cy="287.2" rx="4.1" ry="7.1"></ellipse><polygon class="st3" points="378.7,266.9 387.8,261.6 394.2,273.9 385.1,279.1 	"></polygon><polygon class="st3" points="394.6,314.8 385.5,320 378.6,325.2 387.7,320 	"></polygon><path class="st4" d="M354,279.3l-0.7-2.3l-7.4-4v-12.7c0-0.2,7.2,4.2,7.2,4.2l0.3-0.7c0.4-1.9,1.1-3.8,2.2-5.5l-5.2-9.6l6.6-5
		l5,9.9h0c1.8-0.4,3.7-0.4,5.5,0.1v-9.5l9.5,5.3v10c1.9,1.8,3.6,3.7,5.1,5.8l5.7-3.6l6.5,12.3l-5.1,4.1l0.4,2.1
		c0.7,2.2,1.2,4.4,1.6,6.6l7.6,4.2v12.6l-7.2-4.3c-0.3,2.3-1.1,4.5-2.3,6.4l5.4,9.2l-6.9,5.2l-4.8-9.5h-6v9.5l-9-5.5v-9.3
		c-2.1-2-3.9-4.3-5.5-6.8l-5.4,3.7l-6.6-12.5l5.5-4l-0.5-1.9C354.8,282.2,354.4,280.7,354,279.3z"></path><polyline class="st5" points="347.8,307.4 354,304.8 354,301 	"></polyline><polygon class="st5" points="367.8,325.2 376.9,320 374.6,313.1 366.4,315.5 	"></polygon><ellipse class="st5" transform="matrix(0.9307 -0.3657 0.3657 0.9307 -79.9072 152.5047)" cx="362.6" cy="287.2" rx="4.1" ry="7.1"></ellipse><polygon class="st5" points="378.7,266.9 387.8,261.6 394.2,273.9 385.1,279.1 	"></polygon><polygon class="st5" points="394.6,314.8 385.5,320 378.6,325.2 387.7,320 	"></polygon><polyline class="st5" points="347.8,307.4 354,304.8 354,301 	"></polyline><polygon class="st4" points="367.8,325.2 376.9,320 374.6,313.1 366.4,315.5 	"></polygon><path class="st3" d="M344.9,284.6l-0.7-2.3l-7.4-4v-12.7c0-0.2,7.2,4.2,7.2,4.2l0.3-0.7c0.4-1.9,1.1-3.8,2.2-5.5l-5.2-9.6l6.6-5
		l5,9.9h0c1.8-0.4,3.7-0.4,5.5,0.1v-9.5l9.5,5.3v10c1.9,1.8,3.6,3.7,5.1,5.8l5.7-3.6l6.5,12.3l-5.1,4l0.4,2.1
		c0.7,2.2,1.2,4.4,1.6,6.6l7.6,4.2v12.6l-7.2-4.3c-0.3,2.3-1.1,4.5-2.3,6.4l5.4,9.2l-6.9,5.2l-4.8-9.5h-6v9.5l-9-5.5v-9.3
		c-2.1-2-3.9-4.3-5.5-6.8l-5.4,3.7l-6.6-12.5l5.5-4l-0.5-1.9C345.7,287.4,345.3,286,344.9,284.6z"></path><ellipse class="st4" transform="matrix(0.9307 -0.3657 0.3657 0.9307 -79.9072 152.5047)" cx="362.6" cy="287.2" rx="4.1" ry="7.1"></ellipse><polygon class="st4" points="394.6,314.8 385.5,320 378.6,325.2 387.7,320 	"></polygon><polygon class="st3" points="377,249.5 367.9,254.7 358.4,249.5 367.5,244.2 	"></polygon><polygon class="st4" points="377,249.4 367.9,254.7 358.4,249.5 367.5,244.2 	"></polygon><polygon class="st3" points="398.7,290.9 389.6,296.1 389.6,308.7 398.7,303.4 	"></polygon><polygon class="st4" points="398.7,290.9 389.6,296.1 389.6,308.7 398.7,303.4 	"></polygon></g><g id="storage_2"><polyline class="st6" points="282,183.2 304.7,171.1 359.2,202.6 359.2,320.5 336.7,333.4 	"></polyline><polyline class="st5" points="282,183.2 304.7,171.1 359.2,202.6 359.2,320.5 336.7,333.4 	"></polyline><path class="st6" d="M336.7,333.4c-1.7-0.1,0-118.6,0-118.6L282,183.2v119.5L336.7,333.4z"></path><polygon class="st7" points="336.5,236.3 336.4,236.3 281.9,205.6 282.1,205.4 336.5,236 359.1,224.5 359.2,224.7 	"></polygon><polygon class="st7" points="336.5,267 336.4,267 281.9,236.3 282.1,236 336.5,266.6 359.1,255.1 359.2,255.4 	"></polygon><polygon class="st7" points="336.5,294.6 336.4,294.5 281.9,263.9 282.1,263.6 336.5,294.2 359.1,282.7 359.2,283 	"></polygon><polygon class="st7" points="336.5,322.4 336.4,322.4 281.9,291.7 282.1,291.5 336.5,322.1 359.1,310.6 359.2,310.8 	"></polygon><polygon class="st6" points="336.7,214.8 359.2,202.6 304.7,171.1 282,183.2 	"></polygon><polygon class="st8" points="336.7,214.8 359.2,202.6 304.7,171.1 282,183.2 	"></polygon><ellipse class="st7" transform="matrix(0.9253 -0.3791 0.3791 0.9253 -58.5653 140.0836)" cx="326.4" cy="218.7" rx="3.3" ry="4"></ellipse><path class="st7" d="M288.7,199.2l25.5,14l3.6,2c0.2,0.1,0.5,0.1,0.6-0.2c0.1-0.2,0.1-0.5-0.2-0.6l-25.5-14l-3.6-2
		C288.6,198.1,288.2,198.9,288.7,199.2L288.7,199.2z"></path><ellipse class="st7" transform="matrix(0.9253 -0.3791 0.3791 0.9253 -68.7303 142.0816)" cx="326.4" cy="245.6" rx="3.3" ry="4"></ellipse><path class="st7" d="M288.7,226l25.5,14l3.6,2c0.2,0.1,0.5,0.1,0.6-0.2c0.1-0.2,0.1-0.5-0.2-0.6l-25.5-14l-3.6-2
		C288.6,224.9,288.2,225.7,288.7,226L288.7,226z"></path><ellipse class="st7" transform="matrix(0.9253 -0.3791 0.3791 0.9253 -79.8354 144.2718)" cx="326.4" cy="274.8" rx="3.3" ry="4"></ellipse><path class="st7" d="M288.7,255.3l25.5,14l3.6,2c0.2,0.1,0.5,0.1,0.6-0.2c0.1-0.2,0.1-0.5-0.2-0.6l-25.5-14l-3.6-2
		C288.6,254.2,288.2,255,288.7,255.3L288.7,255.3z"></path><ellipse class="st7" transform="matrix(0.9253 -0.3791 0.3791 0.9253 -89.9191 146.254)" cx="326.4" cy="301.4" rx="3.3" ry="4"></ellipse><path class="st7" d="M288.7,281.9l25.5,14l3.6,2c0.5,0.3,1-0.5,0.5-0.8l-25.5-14l-3.6-2C288.6,280.8,288.2,281.6,288.7,281.9
		L288.7,281.9z"></path></g><g id="wifi"><g id="wifi-2"><path class="st9" d="M234.7,139.1c-5.5-11.7-17.1-17.2-26.7-11.9c-4.1,2.2-1,10.4,3.1,8.2c5.9-3.2,13.6-0.3,17.1,7.1
			C230.6,147.5,237.1,144.2,234.7,139.1z"></path><path class="st9" d="M242.7,125.9c-9.7-14.6-24.5-19.8-38.2-13.9c-4.3,1.8-1.1,10,3.1,8.2c10.7-4.6,22-0.2,29.6,11.1
			C240.3,135.8,245.7,130.4,242.7,125.9z"></path><path class="st9" d="M249.9,116c-11.9-20.6-32.2-28.1-50.2-19.1c-4.2,2.1-1,10.2,3.1,8.2c15.3-7.6,31.6-1.1,41.6,16.3
			C247.3,126.2,252.7,120.8,249.9,116z"></path></g><path class="st9" d="M347,170.2c-5.5-11.7-17.1-17.2-26.7-11.9c-4.1,2.2-1,10.4,3.2,8.2c5.9-3.2,13.6-0.3,17.1,7.1
		C343,178.6,349.4,175.3,347,170.2z"></path><path class="st9" d="M355,157.1c-9.7-14.6-24.5-19.8-38.2-13.9c-4.2,1.8-1.1,10,3.2,8.2c10.7-4.6,22-0.2,29.6,11.1
		C352.6,166.9,358,161.6,355,157.1z"></path><path class="st9" d="M362.3,147.2c-11.9-20.7-32.3-28.1-50.2-19.2c-4.2,2.1-1,10.3,3.1,8.2c15.3-7.6,31.6-1.1,41.6,16.3
		C359.6,157.3,365,151.9,362.3,147.2z"></path></g><g id="gear_1"><path class="st3" d="M299,232.3c-0.1,0.2-0.7,2.5-1.2,2s-3,0.6-3,0.6l-7-9l0.9-2.9h6.3"></path><path class="st3" d="M264.9,193.7l-0.7-2.3l-7.4-4v-12.7c0-0.2,7.2,4.2,7.2,4.2l0.3-0.7c0.4-1.9,1.1-3.8,2.2-5.5l-5.2-9.6l6.6-5
		l5,9.9l0,0c1.8-0.4,3.7-0.4,5.5,0.1v-9.5l9.5,5.3v10c1.9,1.8,3.6,3.7,5.1,5.8l5.7-3.6l6.5,12.3l-5.1,4l0.4,2.1
		c0.6,2.2,1.2,4.4,1.6,6.6l7.6,4.2v12.6l-7.2-4.3c-0.3,2.3-1.1,4.5-2.3,6.4l5.4,9.2l-6.9,5.2l-4.8-9.5h-6v9.5l-9-5.5v-9.3
		c-2.1-2-3.9-4.3-5.5-6.8l-5.4,3.7l-6.6-12.6l5.5-4l-0.5-1.9C265.7,196.5,265.3,195.1,264.9,193.7z"></path><polyline class="st3" points="247.8,179.9 256.1,174.9 258.2,178 255,184.8 	"></polyline><polyline class="st3" points="258.7,221.7 264.9,219.1 264.9,215.4 	"></polyline><polygon class="st3" points="278.7,239.6 287.8,234.3 285.5,227.4 277.3,229.8 	"></polygon><polygon class="st3" points="268,158.1 258.8,163.3 263.8,173.3 269.3,173.4 270.6,163.3 	"></polygon><ellipse class="st3" transform="matrix(0.9307 -0.3657 0.3657 0.9307 -54.7614 113.9842)" cx="273.5" cy="201.6" rx="4.1" ry="7.1"></ellipse><polygon class="st3" points="287.9,163.8 278.8,169.1 269.3,163.8 278.4,158.6 	"></polygon><polygon class="st3" points="289.6,181.2 298.7,176 305.1,188.3 296,193.5 	"></polygon><polygon class="st3" points="305.5,229.1 296.4,234.4 289.5,239.6 298.6,234.3 	"></polygon><path class="st4" d="M299,232.3c-0.1,0.2-0.7,2.5-1.2,2s-3,0.6-3,0.6l-7-9l0.9-2.9h6.3"></path><path class="st3" d="M264.9,193.7l-0.7-2.3l-7.4-4v-12.7c0-0.2,7.2,4.2,7.2,4.2l0.3-0.7c0.4-1.9,1.1-3.8,2.2-5.5l-5.2-9.6l6.6-5
		l5,9.9l0,0c1.8-0.4,3.7-0.4,5.5,0.1v-9.5l9.5,5.3v10c1.9,1.8,3.6,3.7,5.1,5.8l5.7-3.6l6.5,12.3l-5.1,4l0.4,2.1
		c0.6,2.2,1.2,4.4,1.6,6.6l7.6,4.2v12.6l-7.2-4.3c-0.3,2.3-1.1,4.5-2.3,6.4l5.4,9.2l-6.9,5.2l-4.8-9.5h-6v9.5l-9-5.5v-9.3
		c-2.1-2-3.9-4.3-5.5-6.8l-5.4,3.7l-6.6-12.6l5.5-4l-0.5-1.9C265.7,196.5,265.3,195.1,264.9,193.7z"></path><polyline class="st4" points="247.8,179.9 256.1,174.9 258.2,178 255,184.8 	"></polyline><polyline class="st3" points="258.7,221.7 264.9,219.1 264.9,215.4 	"></polyline><polygon class="st3" points="278.7,239.6 287.8,234.3 285.5,227.4 277.3,229.8 	"></polygon><polygon class="st3" points="268,158.1 258.8,163.3 263.8,173.3 269.3,173.4 270.6,163.3 	"></polygon><ellipse class="st3" transform="matrix(0.9307 -0.3657 0.3657 0.9307 -54.7614 113.9842)" cx="273.5" cy="201.6" rx="4.1" ry="7.1"></ellipse><polygon class="st3" points="289.6,181.2 298.7,176 305.1,188.3 296,193.5 	"></polygon><polygon class="st3" points="305.5,229.1 296.4,234.4 289.5,239.6 298.6,234.3 	"></polygon><path class="st4" d="M264.9,193.7l-0.7-2.3l-7.4-4v-12.7c0-0.2,7.2,4.2,7.2,4.2l0.3-0.7c0.4-1.9,1.1-3.8,2.2-5.5l-5.2-9.6l6.6-5
		l5,9.9l0,0c1.8-0.4,3.7-0.4,5.5,0.1v-9.5l9.5,5.3v10c1.9,1.8,3.6,3.7,5.1,5.8l5.7-3.6l6.5,12.3l-5.1,4l0.4,2.1
		c0.6,2.2,1.2,4.4,1.6,6.6l7.6,4.2v12.6l-7.2-4.3c-0.3,2.3-1.1,4.5-2.3,6.4l5.4,9.2l-6.9,5.2l-4.8-9.5h-6v9.5l-9-5.5v-9.3
		c-2.1-2-3.9-4.3-5.5-6.8l-5.4,3.7l-6.6-12.6l5.5-4l-0.5-1.9C265.7,196.5,265.3,195.1,264.9,193.7z"></path><polyline class="st5" points="258.7,221.7 264.9,219.1 264.9,215.4 	"></polyline><polygon class="st5" points="278.7,239.6 287.8,234.3 285.5,227.4 277.3,229.8 	"></polygon><ellipse class="st5" transform="matrix(0.9307 -0.3657 0.3657 0.9307 -54.7614 113.9842)" cx="273.5" cy="201.6" rx="4.1" ry="7.1"></ellipse><polygon class="st5" points="289.6,181.2 298.7,176 305.1,188.3 296,193.5 	"></polygon><polygon class="st5" points="305.5,229.1 296.4,234.4 289.5,239.6 298.6,234.3 	"></polygon><polyline class="st5" points="258.7,221.7 264.9,219.1 264.9,215.4 	"></polyline><polygon class="st4" points="278.7,239.6 287.8,234.3 285.5,227.4 277.3,229.8 	"></polygon><path class="st3" d="M255.8,198.9l-0.7-2.3l-7.4-4v-12.7c0-0.2,7.2,4.2,7.2,4.2l0.3-0.7c0.4-1.9,1.1-3.8,2.2-5.4l-5.2-9.6l6.6-5
		l5,9.9l0,0c1.8-0.4,3.7-0.4,5.5,0.1v-9.5l9.5,5.3v10c1.8,1.8,3.5,3.7,5,5.8l5.7-3.6l6.5,12.2l-5.1,4.1l0.4,2.1
		c0.7,2.2,1.2,4.4,1.6,6.6l7.6,4.2V223l-7.2-4.3c-0.3,2.3-1.1,4.5-2.3,6.4l5.4,9.2l-6.9,5.2l-4.8-9.5h-6v9.5l-9-5.5v-9.3
		c-2.1-2-3.9-4.3-5.5-6.8l-5.4,3.7l-6.6-12.6l5.5-4l-0.5-1.9C256.6,201.8,256.2,200.4,255.8,198.9z"></path><ellipse class="st4" transform="matrix(0.9307 -0.3657 0.3657 0.9307 -54.7614 113.9842)" cx="273.5" cy="201.6" rx="4.1" ry="7.1"></ellipse><polygon class="st4" points="305.5,229.1 296.4,234.4 289.5,239.6 298.6,234.3 	"></polygon><polygon class="st3" points="287.9,163.8 278.8,169.1 269.3,163.8 278.4,158.6 	"></polygon><polygon class="st4" points="287.9,163.8 278.8,169.1 269.3,163.9 278.4,158.6 	"></polygon><polygon class="st3" points="309.6,205.2 300.5,210.5 300.5,223 309.6,217.8 	"></polygon><polygon class="st4" points="309.6,205.2 300.5,210.5 300.5,223 309.6,217.8 	"></polygon></g><g id="storage_1"><polyline class="st6" points="174.1,150 199.7,136.4 261.2,171.9 261.2,305 235.9,319.7 	"></polyline><polyline class="st5" points="174.1,150 199.7,136.4 261.2,171.9 261.2,305 235.9,319.7 	"></polyline><path class="st6" d="M235.9,319.7c-1.9-0.2,0-133.9,0-133.9L174.1,150v134.9L235.9,319.7z"></path><polygon class="st7" points="235.6,210 235.5,210 174,175.3 174.1,175.1 235.6,209.7 261.2,196.6 261.3,196.9 	"></polygon><polygon class="st7" points="235.6,244.6 235.5,244.6 174,210 174.1,209.7 235.6,244.3 261.2,231.3 261.3,231.5 	"></polygon><polygon class="st7" points="235.6,275.8 235.5,275.8 174,241.1 174.1,240.9 235.6,275.5 261.2,262.4 261.3,262.7 	"></polygon><polygon class="st7" points="235.6,307.2 235.5,307.2 174,272.6 174.1,272.3 235.6,306.9 261.2,293.9 261.3,294.1 	"></polygon><polygon class="st6" points="235.9,185.7 261.2,171.9 199.7,136.4 174.1,150 	"></polygon><polygon class="st8" points="235.9,185.7 261.2,171.9 199.7,136.4 174.1,150 	"></polygon><ellipse class="st7" transform="matrix(0.9253 -0.3791 0.3791 0.9253 -55.3524 99.2085)" cx="224.2" cy="190.2" rx="3.7" ry="4.5"></ellipse><path class="st7" d="M181.7,168.1l28.8,15.8l4.1,2.3c0.5,0.3,1-0.5,0.5-0.8l-28.8-15.8l-4.1-2.3C181.6,167,181.1,167.8,181.7,168.1
		z"></path><ellipse class="st7" transform="matrix(0.9253 -0.3791 0.3791 0.9253 -66.8323 101.4692)" cx="224.2" cy="220.4" rx="3.7" ry="4.5"></ellipse><path class="st7" d="M181.7,198.3l28.8,15.8l4.1,2.3c0.5,0.3,1-0.5,0.5-0.8l-28.8-15.8l-4.1-2.3
		C181.6,197.3,181.1,198.1,181.7,198.3z"></path><ellipse class="st7" transform="matrix(0.9253 -0.3791 0.3791 0.9253 -79.3747 103.9358)" cx="224.2" cy="253.5" rx="3.7" ry="4.5"></ellipse><path class="st7" d="M181.7,231.4l28.8,15.8l4.1,2.3c0.5,0.3,1-0.5,0.5-0.8l-28.8-15.8l-4.1-2.3
		C181.6,230.3,181.1,231.1,181.7,231.4z"></path><ellipse class="st7" transform="matrix(0.9253 -0.3791 0.3791 0.9253 -90.7635 106.1766)" cx="224.2" cy="283.5" rx="3.7" ry="4.5"></ellipse><path class="st7" d="M181.7,261.4l28.8,15.8l4.1,2.3c0.5,0.3,1-0.5,0.5-0.8l-28.8-15.8l-4.1-2.3
		C181.6,260.4,181.1,261.2,181.7,261.4L181.7,261.4z"></path></g><g id="shield"><path class="st3" d="M137.7,231c0,0-6.2,77.2,51.2,144.8c0,0,22.7-0.4,45.3-38.4l6.6-38.4l-2.2-14.6l-30.4-28.9
		c0,0-38.8-19-39.5-20.1S137.7,231,137.7,231z"></path><path class="st3" d="M238.3,287.7c1.5,84.1-49.4,88.1-49.4,88.1c66.6-12.8,54.8-91.4,54.8-91.4"></path><path class="st3" d="M238.3,287.7c0,0-36.2-47.5-100.6-56.7l7.7-4.8c0,0,54.9,1.5,98.4,58.1L238.3,287.7z"></path><path class="st4" d="M238.3,287.7c1.5,84.1-49.4,88.1-49.4,88.1c66.6-12.8,54.8-91.4,54.8-91.4"></path><path class="st4" d="M238.3,287.7c0,0-36.2-47.5-100.6-56.7l7.7-4.8c0,0,54.9,1.5,98.4,58.1L238.3,287.7z"></path><path class="st9" d="M198.9,338.8l7.4-4.8c0.1-0.1-4.9-3.8-4.9-3.8l-2.9,5.4"></path><polyline class="st9" points="170.5,281.5 177,277.2 178.6,285.8 172,284.5 	"></polyline><path class="st9" d="M179.6,277c-1.1-0.6-2.5-0.3-3.2,0.8c-0.2,0.4-0.3,0.7-0.3,1.2l-0.7,36.8c0,1.2,0.6,2.2,1.6,2.8l25.9,15.5
		c1.6,0.9,3.6,0.5,4.5-1.1c0.3-0.5,0.5-1.1,0.5-1.7v-36c0-1.2-0.7-2.3-1.7-2.9L179.6,277z"></path><path class="st10" d="M172.6,281.6c-1.1-0.6-2.5-0.3-3.2,0.8c-0.2,0.4-0.3,0.7-0.3,1.2l-0.7,36.8c0,1.2,0.6,2.2,1.6,2.8l25.9,15.4
		c1.6,0.9,3.6,0.5,4.5-1.1c0.3-0.5,0.5-1.1,0.5-1.7v-36c0-1.2-0.6-2.3-1.7-2.9L172.6,281.6z"></path><ellipse class="st3" transform="matrix(0.9968 -7.950302e-02 7.950302e-02 0.9968 -23.5674 15.5509)" cx="183.5" cy="303.7" rx="5.6" ry="8.9"></ellipse><path class="st3" d="M182.3,305h0.7c1,0,1.7,0.8,1.7,1.7v14c0,1-0.8,1.7-1.7,1.7h-0.7c-1,0-1.7-0.8-1.7-1.7v-14
		C180.6,305.8,181.4,305,182.3,305z"></path><ellipse class="st10" cx="197.8" cy="291.8" rx="2.7" ry="1.6"></ellipse><path class="st10" d="M189.6,263.3c-12.5-3-12.4,11.5-12.4,11.5v5.2c-0.1,0.8,0,1.5,0.2,2.2c0.6,0.6,1.5,1,2.4,0.9
		c0.8,0,1.8-0.1,2.2-0.8c0.2-0.6,0.3-1.3,0.2-2c-0.1-1.2-0.1-2.4-0.1-3.6c0.1-2.6,0.3-5.8,2-7.9c1.1-1.4,3-1.9,4.7-1.2
		c6.4,2.1,6.3,9.8,6.3,9.8v14.3h5.4v-14.6C200.5,277.2,199.4,265.7,189.6,263.3z"></path></g><g id="character"><path class="st11" d="M329.9,234.3c0.2,0.1,1.5-3.8,1.6-5.4s-1.3-7.3,0-7.7s2.1,4,2.1,4s0.2-9.4,1.4-9.4s1.2,5,1.2,5s1-6.4,2.2-6.2
		s0,7.6,0,7.6s0.9-6.3,2.3-5.9s0,6.8,0,6.8s1.1-2.9,2-2s-2.8,9.4-3.3,10.3s-3.8,6.2-4.1,6.4S329.9,234.3,329.9,234.3z"></path><path class="st11" d="M312.5,227.3c-2.3,1.4,6.5-9,6.3-10.6s1.3-7.3,0-7.7s-2.1,3.9-2.1,3.9s-0.2-9.3-1.4-9.3s-1.2,5-1.2,5
		s-1-6.4-2.2-6.2s0,7.6,0,7.6s-0.9-6.3-2.3-5.9s0,6.8,0,6.8s-1.1-2.9-2-2s1.9,7.3,2.4,8.2s-5.7,8.2-5.3,8.5S312.5,227.3,312.5,227.3
		z"></path><path class="st9" d="M277.8,244c0,0,16.4-12.6,17.8-13.6s14.2-13.6,14.2-13.6c2.8,1.4,5.6,2.7,8.6,3.8c0,0-11.2,15-16.1,19.2
		c-4.3,3.7-17.5,14-17.5,14"></path><path class="st12" d="M278,355.8c0,0-2.3,9.9-0.9,11c0,0,8.5-4.5,9.9-0.8c1.1,2.9-4.8,5.2-8.8,7.1c-3.4,1.6-10,3.6-11.2,0.8
		s4.4-23.7,4.4-23.7"></path><path class="st12" d="M303.8,372c0,0-0.7,10.1,0.9,11c0,0,9-4.8,10.9-1.4c1.5,2.7-4.9,6.5-8.2,8.1s-9.8,4.4-11.5,1.8
		s0.6-24.1,0.6-24.1"></path><path class="st3" d="M280.5,361c3.1-13.6,12.7-57.2,11.5-71c-1.4-16.4-14.1-11.6-14.1-11.6s-4.6,24.3-8,43.1
		c-2.7,14.9-4.9,34.1-5.7,41.5C269.6,365.6,276.5,365.2,280.5,361z"></path><path class="st3" d="M308.5,376c-0.3-21.4-0.5-77.8-6.5-91c-7.7-16.7-15.8,0.2-15.8,8c0,7.2,5.9,78.6,6.8,88.6
		C298.3,384.2,306.6,381.8,308.5,376z"></path><path class="st9" d="M302.1,285.8c0.9-8.6,3.3-34.3-0.1-36.8c-6.1-4.6-21.1-13.4-24.3-5c-2.4,6.5-1.9,26.1-0.4,36.9
		C284.6,285.2,293.9,287.8,302.1,285.8z"></path><path class="st11" d="M293,236.8c-0.2,0.2,0,6.7,0,6.7s-2.4,0.2-6.8-2.9l0.4-6.8L293,236.8z"></path><path class="st11" d="M290.9,221.6c0,0,2,4.9,4.1,6.6s4,5.4,2.1,8.6s-14.6-0.8-14.8-4.5S283.1,219.5,290.9,221.6z"></path><path d="M278.7,222.2c0,0,3-3.4,7.2-3.3s6.4,2.5,6,5s-3.5,3.4-3.6,4.8s2,8.2,1,9.9s-2.9,1.5-4.8,1.4s-8.1-4.6-9.3-9.9
		C274.7,226.9,276,223.7,278.7,222.2z"></path><path class="st9" d="M297.1,246.6c0,0,18.2-2.6,19.7-3.6s14.2-13.6,14.2-13.6c2.8,1.4,5.6,2.7,8.6,3.8c0,0-11.2,15-16.1,19.2
		c-4.3,3.7-21.9,11.8-21.9,11.8"></path></g></svg>