<svg transform="scale(1)" version="1.1" id="NjXDF4cuxG" xmlns="http://www.w3.org/2000/svg" xmlns:xlink="http://www.w3.org/1999/xlink" x="0px" y="0px" viewBox="0 0 500 500" xml:space="preserve" class="pbimage_pbimage__wrapper__image__0LEis false"><title>Web Development</title><style type="text/css"> .st0{fill:#FFD6A9;} .st1{fill:url(#SVGID_1_-NjXDF4cuxG);} .st2{fill:url(#SVGID_00000042720187864770735260000014640549748104454568_-NjXDF4cuxG);} .st3{fill:url(#SVGID_00000164484448801853805440000014174040847546192290_-NjXDF4cuxG);} .st4{fill:url(#SVGID_00000102524244282510571360000002976706978770762374_-NjXDF4cuxG);} .st5{fill:#E54C3C;} .st6{fill:#F5604B;} .st7{fill:#56403D;} .st8{fill:#FFFFFF;} .st9{fill:#6DE1FC;} .st10{fill:#A8A93D;} .st11{fill:#FBB5AD;} .st12{fill:#F3A71C;}
 .st12{fill:#F3A71C;}
 .st11{fill:#FBB5AD;}
 .st10{fill:#A8A93D;}
 .st9{fill:#6DE1FC;}
 .st8{fill:#FFFFFF;}
 .st7{fill:#56403D;}
 .st6{fill:#F5604B;}
 .st5{fill:#E54C3C;}
 .st0{fill:#FFD6A9;}</style><path class="st0" id="Base" d="M224.4,153.2l-189.1,110c-5.7,3.3-7.7,10.6-4.4,16.4c1.1,1.9,2.7,3.5,4.6,4.5l231.5,129.6
	c5.7,3.2,12.6,3.2,18.3,0.2l177.9-95.7c7.1-3.8,9.7-12.6,5.9-19.6c-1.3-2.3-3.2-4.3-5.5-5.7L224.4,153.2z"></path><g id="Shadow"><linearGradient id="SVGID_1_-NjXDF4cuxG" gradientUnits="userSpaceOnUse" x1="116.2762" y1="-1774.795" x2="95.4263" y2="-1748.755" gradientTransform="matrix(1 0 0 1 0 1999.96)"><stop offset="0" style="stop-color: rgb(212, 163, 151);"></stop><stop offset="0.99" style="stop-color: rgb(255, 214, 169);"></stop></linearGradient><path class="st1" d="M93.7,229.8l-23.4,13.6c0,0,1.3,19.8,25.2,16.8l43.1-23.6"></path><linearGradient id="SVGID_00000001663313596918443930000008940029934227880587_-NjXDF4cuxG" gradientUnits="userSpaceOnUse" x1="175.4508" y1="-1699.7495" x2="169.2608" y2="-1689.2395" gradientTransform="matrix(1 0 0 1 0 1999.96)"><stop offset="0" style="stop-color: rgb(212, 163, 151);"></stop><stop offset="0.99" style="stop-color: rgb(255, 214, 169);"></stop></linearGradient><polyline points="193.7,307.7 105.4,261.2 
		91.9,270 235.9,348.8 255.8,335.9 	" style="fill: url(&quot;#SVGID_00000001663313596918443930000008940029934227880587_-NjXDF4cuxG&quot;);"></polyline><linearGradient id="SVGID_00000090989203555845972990000011874884036365758889_-NjXDF4cuxG" gradientUnits="userSpaceOnUse" x1="294.2168" y1="-1649.0016" x2="264.9668" y2="-1625.1915" gradientTransform="matrix(1 0 0 1 0 1999.96)"><stop offset="0" style="stop-color: rgb(212, 163, 151);"></stop><stop offset="0.99" style="stop-color: rgb(255, 214, 169);"></stop></linearGradient><path d="M269.9,351.8l-21,12.5
		c0,0,13.8,13.2,29.8,19.9l19.5-12.7" style="fill: url(&quot;#SVGID_00000090989203555845972990000011874884036365758889_-NjXDF4cuxG&quot;);"></path><linearGradient id="SVGID_00000081622690427135764180000002585217253430025904_-NjXDF4cuxG" gradientUnits="userSpaceOnUse" x1="407.9545" y1="-1680.4858" x2="386.8645" y2="-1657.356" gradientTransform="matrix(1 0 0 1 0 1999.96)"><stop offset="0" style="stop-color: rgb(212, 163, 151);"></stop><stop offset="0.99" style="stop-color: rgb(255, 214, 169);"></stop></linearGradient><path d="M393.7,317.4l-21,12.4
		c0,0,6.5,11.4,22.6,18.2l24.5-13.1" style="fill: url(&quot;#SVGID_00000081622690427135764180000002585217253430025904_-NjXDF4cuxG&quot;);"></path></g><g id="Note"><polyline class="st5" points="267.8,342.8 267.8,352.7 298.2,371.4 334.6,349.2 334.6,340.8 	"></polyline><polygon class="st6" points="334.6,340.8 303.6,322.3 267.8,342.8 298.7,361.6 	"></polygon></g><g id="Keyboard"><path class="st7" d="M152.3,234.4l-46.9,26.8c-1.5,0.9-2.1,2.8-1.2,4.4c0.3,0.5,0.7,0.9,1.2,1.2l130.1,74.8c3.2,1.9,7.2,1.9,10.4,0
		l43.8-25.3c1.6-0.9,2.2-2.9,1.3-4.5c-0.3-0.6-0.8-1-1.3-1.3l-131.6-76C156.3,233.4,154.1,233.4,152.3,234.4z"></path><path class="st8" d="M223,277.1l-13.3,7.9l9.9,5.8c2.8-1.6,10.8-6.4,13.4-7.9L223,277.1z"></path><path class="st8" d="M208.4,268.6l-13.4,7.9l12.6,7.3c2.2-1.3,10.3-6,13.4-7.9L208.4,268.6z"></path><path class="st8" d="M155.2,237.7l-13.6,7.8l12.1,7c1.9-1.1,10.1-5.9,13.4-7.9L155.2,237.7z"></path><path class="st8" d="M183.8,254.3l-13.4,7.9l9.9,5.8c2.4-1.4,10.4-6.1,13.4-7.9L183.8,254.3z"></path><path class="st8" d="M169.1,245.8l-13.4,7.9l12.6,7.3c1.5-0.8,9.9-5.9,13.4-7.9L169.1,245.8z"></path><path class="st8" d="M235,284.1l-13.3,7.9l9.5,5.5l13.4-7.9L235,284.1z"></path><path class="st8" d="M195.8,261.3l-13.4,7.9l10.6,6.1c2.5-1.4,10.6-6.2,13.4-7.9L195.8,261.3z"></path><path class="st8" d="M246.6,290.8l-13.4,7.9l12.6,7.3c2.6-1.5,10.6-6.3,13.4-7.9L246.6,290.8z"></path><polygon class="st8" points="261.2,299.3 247.9,307.2 270.4,320.3 284,312.5 	"></polygon><path class="st8" d="M139.9,247.8l-13.6,7.8l17.6,10.2c2.3-1.3,10.4-6.1,13.4-7.9L139.9,247.8z"></path><path class="st8" d="M173.9,267.6l-13.4,7.9l9.9,5.8c2.6-1.5,10.7-6.3,13.4-7.9L173.9,267.6z"></path><path class="st8" d="M198.5,281.9l-13.4,7.9l12.6,7.3c2.5-1.5,10.6-6.2,13.4-7.9L198.5,281.9z"></path><path class="st8" d="M186,274.5l-13.4,7.9l10.6,6.1c2.8-1.6,10.8-6.4,13.4-7.9L186,274.5z"></path><path class="st8" d="M213.2,290.4l-13.4,7.9l10,5.8c3.1-1.8,11.1-6.6,13.4-7.9L213.2,290.4z"></path><path class="st8" d="M225.2,297.3l-13.4,7.9l9.5,5.5c3.1-1.8,11.2-6.6,13.4-7.9L225.2,297.3z"></path><path class="st8" d="M159.4,259.1L146,267l12.6,7.3l13.4-7.9L159.4,259.1z"></path><path class="st8" d="M236.8,304l-13.4,8l12.6,7.3c2.9-1.7,10.9-6.4,13.4-7.9L236.8,304z"></path><polygon class="st8" points="238.1,320.5 255.1,330.4 268.7,322.6 251.4,312.6 	"></polygon><polygon class="st8" points="228.1,319.1 218.1,325 229.6,331.7 239.7,325.9 	"></polygon><polygon class="st8" points="232,333.1 241.8,338.8 251.9,333 242,327.2 	"></polygon><polygon class="st8" points="123.1,258.2 112.7,264 124.5,270.8 134.7,264.9 	"></polygon><polygon class="st8" points="136.9,266.2 126.9,272.2 139.5,279.5 149.7,273.6 	"></polygon><polygon class="st8" points="151.9,274.9 141.9,280.9 215.7,323.6 225.8,317.8 	"></polygon></g><g id="Monitor_and_Character_Male"><path class="st7" d="M244.7,240l-22.4,10.8c-2.6,1.2-3.7,4.3-2.4,6.9c0,0,0,0,0,0c0.4,0.9,1.1,1.7,2,2.2l53.2,31
		c2.4,1.4,5.4,0.7,6.9-1.7l12.9-20.1"></path><path class="st9" d="M366.8,188l-179-103.1c-3.9-2.2-8.8-0.9-11,3c-0.7,1.2-1.1,2.6-1.1,4v107.3c0,2.4,1.3,4.7,3.4,5.9l190.8,110.1
		c2.1,1.2,4.7,0.5,5.9-1.6c0,0,0,0,0,0c0.4-0.7,0.6-1.4,0.6-2.2V204.5C376.4,197.7,372.7,191.4,366.8,188z"></path><path class="st8" d="M187.9,93l173.6,99.9c3.8,2.2,6.1,6.2,6.1,10.6v80.4c0,2.4-2,4.4-4.4,4.4c-0.8,0-1.5-0.2-2.2-0.6L184,186.1
		c-1.3-0.8-2.2-2.2-2.2-3.8V96.5c0-2.3,1.9-4,4.1-4C186.6,92.5,187.2,92.7,187.9,93L187.9,93z"></path><ellipse class="st7" transform="matrix(0.982 -0.1891 0.1891 0.982 -40.776 53.5116)" cx="260" cy="240.4" rx="3.8" ry="4.3"></ellipse><path class="st10" d="M260.7,149.7l50.6,29.3c1.1,0.6,1.7,1.8,1.6,3l-1.8,45.4c-0.1,1.8-1.6,3.2-3.4,3.2c-0.5,0-1.1-0.2-1.5-0.4
		L257.4,202c-1-0.6-1.7-1.7-1.6-2.9v-46.6c0-1.8,1.4-3.3,3.3-3.3C259.7,149.2,260.3,149.4,260.7,149.7L260.7,149.7z"></path><path class="st11" d="M278.9,157.6v-0.1l-0.2-1.6c-2-0.1-3.1,0.4-5,0.4c-1,1-1.6,2.3-1.8,3.6c0,1,0.1,2.3,1.3,2.2
		c0.2,0.9,0.7,2.1,1.8,1.8l0.1-0.1c0.1,0.6,0.3,1.2,0.8,1.4s0.9-0.1,1.2-0.7c0.2,0.8,0.6,2,1.4,2c1.1,0,1.2-1.6,0.9-3.2
		C279.3,161.5,279.1,159.5,278.9,157.6z"></path><path class="st7" d="M273.4,159.4c-0.3,0.9-0.4,1.8-0.4,2.7c0,0.1,0.1,0.2,0.2,0.3s0.2-0.1,0.3-0.2c0,0,0-0.1,0-0.1
		c0-0.9,0.1-1.8,0.4-2.6C273.9,159.3,273.5,159.2,273.4,159.4z"></path><path class="st7" d="M275,160.3l-0.2,3.8c0,0.1,0.1,0.2,0.2,0.2s0.2-0.1,0.2-0.2l0,0l0.2-3.8C275.5,160,275,160,275,160.3z"></path><path class="st7" d="M276.6,159.8v5c0,0.1,0.1,0.2,0.2,0.2l0,0c0.1,0,0.2-0.1,0.2-0.2c0,0,0,0,0,0v-5c0-0.1-0.1-0.2-0.2-0.2
		c0,0,0,0,0,0C276.7,159.6,276.6,159.7,276.6,159.8L276.6,159.8z"></path><path class="st11" d="M278.6,156c1.5,1.5,2.3,3.5,2.5,5.6l-2.1-1.4L278.6,156z"></path><path class="st11" d="M298.4,166.6c0,0-1.6,0.3-1.6,0.3c-1.4,0.9-4.8,2.6-6.3,3.3c-0.9,0.4-3,1.3-2.5,2.6c0.2,0.7,0.9,0.8,1.8,0.6
		c-0.1,0.4,0,0.8,0.4,1c0.6,0.3,1.2,0.2,1.7-0.2c0,0.2,0.2,0.4,0.3,0.6c0.7,0.6,2.1-0.1,3-0.4c0,0.1,0,0.3,0,0.4
		c0,0.5,0.5,0.9,0.9,0.7c2.1-1.1,5.3-5.1,6.3-7C300.4,167.6,300.3,167.4,298.4,166.6z"></path><path class="st7" d="M297,172.2c-0.5,0.8-1.2,1.4-1.9,2c-0.2,0.2,0.1,0.4,0.3,0.3c0.8-0.6,1.4-1.3,2-2.1
		C297.5,172.2,297.1,172,297,172.2z"></path><path class="st7" d="M295.7,171.2c-1.2,1-2.4,1.9-3.7,2.8c-0.2,0.1,0,0.5,0.2,0.4c1.3-0.9,2.5-1.9,3.7-2.8
		C296.2,171.3,295.9,171,295.7,171.2z"></path><path class="st7" d="M293.8,170.7c-1.3,0.9-2.6,1.7-4.1,2.3c-0.2,0.1,0,0.5,0.2,0.4c1.4-0.7,2.8-1.5,4.1-2.4
		C294.2,170.9,294,170.5,293.8,170.7z"></path><path class="st11" d="M296.8,166.8c0,0-2-1.5-5.3,0.8l2.8,1.8"></path><path class="st7" d="M310.8,237h-0.1c-0.3,0-0.6-0.3-0.6-0.6c0-0.3,0.2-0.5,0.5-0.6c0,0,0,0,0,0h0.1c1,0,1.9-0.4,2.5-1.2
		c0.2-0.2,0.6-0.2,0.8,0c0.2,0.2,0.2,0.5,0.1,0.7C313.4,236.4,312.1,237,310.8,237z M305.3,234.4c-0.1,0-0.2,0-0.3-0.1l-3-1.8
		c-0.3-0.1-0.5-0.5-0.3-0.8c0.1-0.3,0.5-0.5,0.8-0.3c0.1,0,0.1,0.1,0.2,0.1l3.1,1.8c0.3,0.2,0.4,0.5,0.2,0.8
		C305.8,234.3,305.6,234.4,305.3,234.4L305.3,234.4z M314.6,229.8L314.6,229.8c-0.3,0-0.6-0.3-0.6-0.6l0.1-3.6
		c0-0.3,0.2-0.6,0.5-0.6c0,0,0,0,0.1,0c0.3,0,0.6,0.3,0.6,0.6l-0.1,3.6C315.2,229.5,314.9,229.8,314.6,229.8L314.6,229.8z
		 M297.1,229.6c-0.1,0-0.2,0-0.3-0.1l-3.1-1.8c-0.3-0.2-0.4-0.5-0.2-0.8c0.2-0.3,0.5-0.4,0.8-0.2l3.1,1.8c0.3,0.2,0.4,0.5,0.2,0.8
		C297.5,229.5,297.3,229.6,297.1,229.6L297.1,229.6z M288.9,224.8c-0.1,0-0.2,0-0.3-0.1l-3.1-1.8c-0.3-0.2-0.4-0.5-0.2-0.8
		c0.2-0.3,0.5-0.4,0.8-0.2l3.1,1.8c0.3,0.2,0.4,0.5,0.2,0.8C289.3,224.7,289.1,224.8,288.9,224.8L288.9,224.8z M315,220.3L315,220.3
		c-0.3,0-0.6-0.3-0.6-0.6c0,0,0,0,0,0l0.1-3.6c0-0.3,0.3-0.6,0.6-0.6l0,0c0.3,0,0.6,0.3,0.6,0.6c0,0,0,0,0,0l-0.1,3.6
		C315.6,220,315.3,220.3,315,220.3z M280.7,220c-0.1,0-0.2,0-0.3-0.1l-3.1-1.8c-0.3-0.2-0.4-0.5-0.2-0.8c0.2-0.3,0.5-0.4,0.8-0.2
		c0,0,0,0,0,0l3.1,1.8c0.3,0.2,0.4,0.5,0.2,0.8C281.1,219.9,280.9,220,280.7,220L280.7,220z M272.5,215.2c-0.1,0-0.2,0-0.3-0.1
		l-3.1-1.8c-0.3-0.2-0.4-0.5-0.2-0.8c0.2-0.3,0.5-0.4,0.8-0.2l3.1,1.8c0.3,0.2,0.4,0.5,0.2,0.8C272.9,215.1,272.7,215.2,272.5,215.2
		L272.5,215.2z M315.3,210.8L315.3,210.8c-0.3,0-0.6-0.3-0.6-0.6c0,0,0,0,0,0l0.1-3.6c0-0.3,0.3-0.6,0.6-0.6c0,0,0,0,0,0
		c0.3,0,0.6,0.3,0.6,0.6l-0.1,3.6C315.9,210.5,315.7,210.8,315.3,210.8L315.3,210.8z M264.3,210.4c-0.1,0-0.2,0-0.3-0.1l-3.1-1.8
		c-0.3-0.2-0.4-0.5-0.2-0.8c0.2-0.3,0.5-0.4,0.8-0.2l0,0l3.1,1.8c0.3,0.2,0.4,0.5,0.2,0.8C264.8,210.3,264.6,210.4,264.3,210.4
		L264.3,210.4z M256.1,205.6c-0.1,0-0.2,0-0.3-0.1l-1.7-1c-0.5-0.3-1-0.7-1.3-1.2c-0.2-0.3-0.1-0.6,0.2-0.8c0.2-0.1,0.6-0.1,0.7,0.1
		c0.3,0.4,0.6,0.7,1,0.9l1.7,1c0.3,0.2,0.4,0.5,0.2,0.8C256.6,205.5,256.4,205.6,256.1,205.6L256.1,205.6z M315.7,201.3L315.7,201.3
		c-0.3,0-0.6-0.3-0.6-0.6l0.1-3.6c0-0.3,0.2-0.6,0.5-0.6c0,0,0,0,0.1,0c0.3,0,0.6,0.3,0.6,0.6c0,0,0,0,0,0l-0.1,3.6
		C316.3,201,316.1,201.3,315.7,201.3C315.7,201.3,315.7,201.3,315.7,201.3L315.7,201.3z M252.5,197.8c-0.3,0-0.6-0.3-0.6-0.6l0,0
		v-3.6c0-0.3,0.3-0.6,0.7-0.5c0.3,0,0.5,0.2,0.5,0.5v3.6C253.1,197.6,252.9,197.8,252.5,197.8C252.5,197.8,252.5,197.8,252.5,197.8
		L252.5,197.8z M316.1,191.8L316.1,191.8c-0.3,0-0.6-0.3-0.6-0.6c0,0,0,0,0,0l0.1-3.6c0-0.3,0.2-0.6,0.6-0.6c0,0,0,0,0.1,0
		c0.3,0,0.6,0.3,0.6,0.6c0,0,0,0,0,0l-0.1,3.6C316.7,191.6,316.4,191.8,316.1,191.8C316.1,191.8,316.1,191.8,316.1,191.8
		L316.1,191.8z M252.5,188.3c-0.3,0-0.6-0.3-0.6-0.6l0,0v-3.6c0-0.3,0.3-0.6,0.7-0.5c0.3,0,0.5,0.2,0.5,0.5v3.6
		C253.1,188.1,252.8,188.3,252.5,188.3C252.5,188.3,252.5,188.3,252.5,188.3L252.5,188.3z M316.5,182.3L316.5,182.3
		c-0.3,0-0.6-0.3-0.6-0.6c0,0,0,0,0,0v-0.5c0-0.9-0.4-1.7-1-2.3c-0.2-0.2-0.2-0.6,0-0.8c0.2-0.2,0.6-0.2,0.8,0
		c0.8,0.8,1.3,1.9,1.3,3.1v0.6C317,182.1,316.7,182.3,316.5,182.3L316.5,182.3z M252.5,178.9c-0.3,0-0.6-0.3-0.6-0.6l0,0v-3.6
		c0-0.3,0.2-0.6,0.5-0.7c0.3,0,0.6,0.2,0.7,0.5c0,0.1,0,0.1,0,0.2v3.6C253.1,178.6,252.8,178.8,252.5,178.9L252.5,178.9z M310.3,176
		c-0.1,0-0.2,0-0.3-0.1l-3.1-1.8c-0.3-0.1-0.4-0.5-0.3-0.8s0.5-0.4,0.8-0.3c0.1,0,0.1,0.1,0.2,0.1l3.1,1.8c0.3,0.2,0.4,0.5,0.2,0.8
		C310.7,175.9,310.5,176,310.3,176L310.3,176z M302.1,171.2c-0.1,0-0.2,0-0.3-0.1l-3.1-1.8c-0.3-0.2-0.4-0.5-0.2-0.8
		c0.2-0.3,0.5-0.4,0.8-0.2l3.1,1.8c0.3,0.2,0.4,0.5,0.2,0.8C302.5,171.1,302.3,171.1,302.1,171.2L302.1,171.2z M252.5,169.4
		c-0.3,0-0.6-0.3-0.6-0.6l0,0v-3.6c0-0.3,0.2-0.6,0.5-0.7c0.3,0,0.6,0.2,0.7,0.5c0,0.1,0,0.1,0,0.2v3.6
		C253.1,169.1,252.8,169.3,252.5,169.4L252.5,169.4z M293.9,166.4c-0.1,0-0.2,0-0.3-0.1l-3.1-1.8c-0.3-0.2-0.4-0.5-0.2-0.8
		c0.2-0.3,0.5-0.4,0.8-0.2c0,0,0,0,0,0l3.1,1.8c0.3,0.2,0.4,0.5,0.2,0.8C294.3,166.3,294.1,166.3,293.9,166.4L293.9,166.4z
		 M285.7,161.6c-0.1,0-0.2,0-0.3-0.1l-3.1-1.8c-0.3-0.2-0.4-0.5-0.2-0.8c0.2-0.3,0.5-0.4,0.8-0.2l3.1,1.8c0.3,0.2,0.4,0.5,0.2,0.8
		c0,0,0,0,0,0C286.1,161.4,285.9,161.5,285.7,161.6L285.7,161.6z M252.5,159.9c-0.3,0-0.6-0.3-0.6-0.6l0,0v-3.6
		c0-0.3,0.2-0.6,0.5-0.7c0.3,0,0.6,0.2,0.7,0.5c0,0.1,0,0.1,0,0.2v3.6C253.1,159.6,252.8,159.8,252.5,159.9L252.5,159.9z
		 M277.5,156.7c-0.1,0-0.2,0-0.3-0.1l-3.1-1.8c-0.3-0.2-0.4-0.5-0.2-0.8c0.2-0.3,0.5-0.4,0.8-0.2c0,0,0,0,0,0l3.1,1.8
		c0.3,0.2,0.4,0.5,0.2,0.8c0,0,0,0,0,0C277.9,156.6,277.7,156.7,277.5,156.7L277.5,156.7z M269.4,151.9c-0.1,0-0.2,0-0.3-0.1
		l-3.1-1.8c-0.3-0.1-0.4-0.5-0.3-0.8s0.5-0.4,0.8-0.3c0.1,0,0.1,0.1,0.2,0.1l3.1,1.8c0.3,0.2,0.4,0.5,0.2,0.8
		C269.7,151.8,269.5,151.9,269.4,151.9L269.4,151.9z M252.5,150.4c-0.3,0-0.6-0.3-0.6-0.6c0,0,0,0,0,0v-1.9c0-0.7,0.1-1.3,0.4-1.9
		c0.1-0.3,0.4-0.5,0.7-0.4c0.3,0.1,0.5,0.4,0.4,0.7c0,0.1-0.1,0.2-0.1,0.3c-0.2,0.4-0.3,0.9-0.3,1.3v1.9
		C253,150.1,252.8,150.3,252.5,150.4L252.5,150.4z M261.2,147.1c-0.1,0-0.2,0-0.3-0.1l-3.2-1.9c-0.2-0.2-0.2-0.6,0-0.8
		c0.1-0.1,0.4-0.2,0.6-0.2l0.2,0.1l3.1,1.8c0.3,0.2,0.4,0.5,0.2,0.8C261.6,147,261.4,147.1,261.2,147.1L261.2,147.1z"></path><path class="st6" d="M292.9,130.1c-2.3-1.1-7.6-4.6-14.4-1.3s-13.2,9.3-6.2,27.1c2.3,0.9,4.7,0.9,7,0.1c0,0-1.4-15.5,0.7-17.4
		l22.8,12.7c0.5,6-2.6,11.8-7.9,14.7l6.3,5.8c5.1-0.1,16.4-16.4,12.9-28s-22.7-14.1-22.7-14.1"></path><path class="st11" d="M287.5,123.1c0,0,0,14.4,5.3,15.4c5.9,1,9.1-5.6,9.1-5.6s0.8-12.7-5-13.8S287.7,121.2,287.5,123.1z"></path><path class="st7" d="M292,132.8c-0.1,0-0.3,0-0.4-0.1c0.1-1.3,0.3-2.7,0.5-4c0-0.2-0.1-0.4-0.3-0.4c-0.2,0-0.4,0.1-0.4,0.3
		c-0.3,1.4-0.5,2.9-0.6,4.3c0,0.2,0.1,0.3,0.2,0.4c0.3,0.2,0.6,0.3,1,0.3c0.2,0,0.4-0.2,0.4-0.4C292.4,133,292.2,132.8,292,132.8z"></path><path class="st7" d="M294.4,133.1c-0.4,1.1-1.6,1.6-2.7,1.2c-0.3-0.1-0.4,0.4-0.1,0.5c1.3,0.5,2.7-0.1,3.3-1.4
		C295,133,294.5,132.8,294.4,133.1z"></path><path class="st7" d="M293.7,131c-0.2,0-0.4,0.2-0.4,0.4c0,0.2,0.2,0.4,0.4,0.4c0.2,0,0.4-0.1,0.4-0.3s-0.1-0.4-0.3-0.4
		C293.8,131,293.8,131,293.7,131z"></path><path class="st7" d="M289.1,130c-0.2,0-0.4,0.2-0.4,0.4c0,0,0,0,0,0c0,0.2,0.2,0.3,0.4,0.3c0.2,0,0.3-0.2,0.3-0.3
		C289.5,130.2,289.3,130,289.1,130z"></path><path class="st11" d="M297.8,131.4c0,0,1.4-5.5,3-3.7c1.6,1.8-2.5,5.8-2.5,5.8"></path><path class="st7" d="M305.8,123.7c-0.4-2.9-2.4-4.3-4.8-5.8l-0.6-0.3c0.5-0.4,0.9-0.9,1.2-1.5c0.1-0.2,0-0.4-0.1-0.5c0,0,0,0,0,0
		c-0.1,0-0.1,0-0.2,0c-0.7,0-1.3,0.3-1.7,0.8c-0.3-0.6-0.7-1.1-1.2-1.6c-0.1-0.2-0.4-0.2-0.5,0c0,0,0,0,0,0c0,0-0.1,0.1-0.1,0.1
		c-0.2,0.6-0.2,1.2,0.1,1.7c-2.6-0.5-5.3-0.1-7.6,1.2c-0.9,0.5-1.6,1.2-2.1,2c-0.7-0.1-1.4,0.1-2,0.4c-1.4,0.6-2.2,2.1-2,3.7
		c0.5,1.6,2.2,2.5,3.8,2c0.8-0.1,1.5-0.5,2.2-1c-0.5,0.8-0.7,1.8,0.8,2.1c2.6,0.6,3.9-1,4.1,0.4c0.1,1.1,1.6,1.7,2.7,1.7
		c0.1,0.2,0.3,0.6,0.5,1.2c0.5-0.2,1.1-0.2,1.7-0.1c0.2-0.2,0.4-0.2,0.6,0c0,0,0.1,0.1,0.1,0.1c0.9,1.6,0.7,3.3,0.4,5.1
		c1.4-1.2,2.6-2.7,3.5-4.4C305.5,128.8,306,126.3,305.8,123.7z"></path><path class="st7" d="M326.8,192.6l33.6,19.6c0.6,0.4,1,1.1,1,1.8l0,0c0,1.1-0.9,2.1-2.1,2.1c-0.4,0-0.7-0.1-1-0.3l-33.6-19.5
		c-0.6-0.4-1-1.1-1-1.8v-0.1c0-1.1,0.9-2.1,2.1-2.1C326.1,192.3,326.5,192.4,326.8,192.6z"></path><path class="st7" d="M326.8,203.2l33.6,19.6c0.6,0.4,1,1.1,1,1.8l0,0c0,1.1-0.9,2.1-2.1,2.1c-0.4,0-0.7-0.1-1-0.3l-33.6-19.4
		c-0.6-0.4-1-1.1-1-1.8V205c0-1.1,0.9-2.1,2-2.1c0,0,0,0,0,0C326.1,202.9,326.5,203,326.8,203.2z"></path><path class="st7" d="M326.8,213.8l33.6,19.6c0.6,0.4,1,1.1,1,1.8l0,0c0,1.1-0.9,2.1-2.1,2.1c-0.4,0-0.7-0.1-1-0.3l-33.6-19.5
		c-0.6-0.4-1-1-1-1.8v-0.1c0-1.1,0.9-2.1,2.1-2.1C326.2,213.6,326.5,213.7,326.8,213.8L326.8,213.8z"></path><path class="st7" d="M326.8,224.4l33.6,19.6c0.6,0.4,1,1.1,1,1.8l0,0c0,1.1-0.9,2.1-2.1,2.1c-0.4,0-0.7-0.1-1.1-0.3l-33.6-19.5
		c-0.6-0.4-1-1.1-1-1.8v-0.1c0-1.1,0.9-2.1,2-2.1C326.1,224.2,326.5,224.3,326.8,224.4z"></path><polygon class="st6" points="242.3,155.9 242.3,189.9 216.1,174.8 216.1,141.2 	"></polygon><polygon class="st6" points="219.1,174.8 219.1,183.1 225.8,177.3 	"></polygon><path class="st8" d="M226.4,159.4l-5.9,3.6c-0.4,0.2-0.5,0.7-0.3,1.1l4.6,6.2c0.6,0.8,2,0,1.4-0.8l-4.6-6.2l-0.3,1.1l5.9-3.6
		C228,160.3,227.2,158.9,226.4,159.4L226.4,159.4z"></path><path class="st8" d="M230.4,162.6l4.9,6.9l0.3-1.1l-6,3c-0.9,0.5-0.1,1.8,0.8,1.4l6-3c0.4-0.2,0.5-0.7,0.3-1.1l-4.9-6.9
		C231.2,160.9,229.8,161.8,230.4,162.6L230.4,162.6z"></path><ellipse class="st7" cx="354.3" cy="195.3" rx="1.9" ry="2.1"></ellipse><ellipse class="st7" cx="348.3" cy="192.3" rx="1.9" ry="2.1"></ellipse><ellipse class="st7" cx="360.4" cy="198.4" rx="1.9" ry="2.1"></ellipse></g><g id="Eraser"><path class="st12" d="M177.3,212c3.2-0.5,40.1,22.6,40.1,22.6v9l-15.1,8.5l-41.2-22.6v-10.6L177.3,212z"></path><polygon class="st8" points="202.4,243 160.8,219.4 161.4,218.4 202.4,241.6 217.2,234.1 217.7,235.1 	"></polygon><rect class="st8" x="201.7" y="242.7" width="1.2" height="9.5"></rect></g><g id="Character_Female_2"><path class="st11" d="M179.8,147.9c0.1-0.1,0.1-0.3,0.1-0.4c0-1.4-0.6-2.7-1.6-3.7c-0.7-0.6-1.8-0.6-2.4,0.1
		c-0.1,0.1-0.2,0.2-0.3,0.4c-1.1,2.3,1.4,4.5,3.4,4.8c0.6,0.1,0.8-0.4,0.7-0.9C179.7,148.2,179.8,148,179.8,147.9z"></path><ellipse class="st6" transform="matrix(8.958963e-02 -0.996 0.996 8.958963e-02 54.052 313.6301)" cx="198.6" cy="127.2" rx="18.9" ry="12.6"></ellipse><ellipse class="st8" transform="matrix(9.289197e-02 -0.9957 0.9957 9.289197e-02 55.3362 311.0473)" cx="198.4" cy="125.2" rx="5.5" ry="4.9"></ellipse><path class="st8" d="M187.6,137.2c0,0,2.9-6.5,8.1-5.7s8.5,3.5,10.7,10.9c-2.6,3.8-7.3,5.4-11.7,4
		C191,144.7,188.3,141.2,187.6,137.2z"></path><path class="st11" d="M214.7,133.1c0-0.1-0.1-0.1-0.1-0.2c0.3-0.3,0.5-0.7,0.5-1.2c0-0.3-0.2-0.6-0.4-0.7c0.3-0.3,0.3-0.8,0-1.1
		c-0.2-0.2-0.5-0.2-0.7-0.2c-1.2,0.2-1.9,1.7-2.5,2.6c-0.4,0.7-0.9,1.3-1.3,2c-0.1-1-0.2-2-0.3-2.9s-1.5-1-1.5,0
		c0.1,1.5-0.1,3-0.5,4.4c-0.1,0.1-0.3,0.2-0.4,0.3c-4.2,4.5-9.6,7.8-15.5,9.6c-0.5,1.4-0.1,3.1,1.2,4c0.1,0.4,0.4,0.8,0.8,1.1
		l-1,0.4c-1.6,0.7-0.9,3.4,0.7,2.7c6.2-2.6,11.6-6.7,15.8-11.9c0.5-0.5,1-0.9,1.4-1.4c0.7-0.7,4.2-4.3,3.4-5.8
		C214.5,134.1,215,133.7,214.7,133.1z"></path><path class="st11" d="M190.3,116.6c-1.7,0.7-2.9,4.2-2.8,5l1.3-0.7l0.2-0.3C189.3,119.3,189.7,117.9,190.3,116.6z"></path><path class="st11" d="M190.6,119.5c-0.1-0.1-0.2-0.1-0.3-0.1l-0.1-0.1c-0.6-0.5-1.6,0.2-2.2,0.5c-0.8,0.4-1.5,0.9-2.1,1.4
		c-0.3,0.4-0.5,0.9-0.6,1.4c-0.2,0.6-0.5,1.2-0.8,1.7c-0.6,1.2-1.2,2.4-1.9,3.5c-1.4,2.2-3.1,4.2-4.9,6c-0.9,0.8,0.5,2.2,1.3,1.3
		l0.6-0.6c0.3,0.2,0.6,0.2,0.9,0c0.2-0.1,0.3-0.2,0.4-0.4l0.2-0.2c0.2,0.5,0.7,0.7,1.2,0.5c0.1,0,0.2-0.1,0.3-0.2l0.6-0.7
		c0.2-0.1,0.4-0.2,0.5-0.4c0,0,0.1,1.3,0.1,1.2c1-1.1,2.2-4.1,3.2-5.9c0-0.1,0-0.2,0.1-0.2c0.6-1.1,0.9-2.3,0.8-3.5
		c0-0.8,0.1-1.7,0.2-2.5l1.7-1.3c0.4-0.3,0.8-0.8,0.8-1.2C190.5,119.7,190.5,119.6,190.6,119.5z"></path><path class="st9" d="M196.8,143c-5.9,1.7-6.9,1.1-9.7,1s-5.8-4-5.8-4s-0.7-8.8-5.9-1.9c-3.9,5.1-5.4,20-5.9,27.2
		c2.1,1.4,4.5,2.3,7,2.5c1.6,0.3,3.2,0.4,4.9,0.4c1,0,2-0.2,2.9-0.6l2.8-12.9c4.5,0.2,8.9-1,12.6-3.6L196.8,143z"></path><path class="st11" d="M184,132.4c0,0,3.8,7.3,0,9.4s-6.7-1.4-7-2.2c-0.6-3.3,1.5-6.5,4.8-7.1C182.5,132.3,183.3,132.3,184,132.4
		L184,132.4z"></path><path class="st7" d="M184.3,131.4c-1.9-1.2-4.3-1.6-6.6-0.9c-1.9,0.4-3.7,1.3-5.1,2.7c-0.5-0.3-1.1-0.5-1.6-0.6
		c-1.5-0.1-2.8,0.7-3.4,2.1c-0.5,1.3,0,2.7,1.2,3.4c0.9,0.5,1.9,0.5,2.8,0.3v0.2c0.1,1.4-1.2,2.1-1.7,3.2c-0.3,0.5-0.3,1.1-0.2,1.7
		c0.1,0.6,0.7,1.2,0.7,1.8c-0.1,0.4-0.3,0.8-0.6,1.2c-0.3,0.4-0.5,0.8-0.7,1.3c2.9,1.3,6.1,1.6,9.1,0.9c3.3-0.6,6.3-2.2,8.6-4.6
		c-0.1-0.3-0.3-0.6-0.6-0.8c-0.5-0.3-1.1-0.6-1.6-0.9c-0.8-0.5,0-1.9,0-2.6c0-1.3-1-1.9-2.1-2.4c-0.8-0.3-0.8-0.8-0.8-1.6
		c-0.1-0.6,0.1-1.3,0.4-1.8c0.2,0,0.5,0,0.7-0.1c0.4-0.2,0.8-0.4,1.3-0.6c0.5-0.2,0.7-0.7,0.6-1.2c0,0,0,0,0,0
		C184.7,131.8,184.5,131.5,184.3,131.4z"></path><path class="st11" d="M172.6,234.9c-0.9-0.2-1.7-0.5-2.3-1.1c-0.4-0.8-0.6-1.7-0.5-2.5v-2.4c-0.1-0.1-0.2-0.2-0.2-0.3
		c0-0.7,0-1.3,0-2l-3.4-0.3c-0.6,2.1-1,4.2-1.4,6.4c0.1,0.7,3.3,5,4.9,5.3s6.1-1.2,6.5-1.8l0,0C175.1,235.7,173.8,235.3,172.6,234.9
		z"></path><path class="st11" d="M195.8,222.9c-1.9,0-3.8,0.2-5.7,0.5c0,0-0.6-3.7-0.6-3.9l-4.8,0.3c0,0-0.6,6.9-0.6,7.9
		c0,1.7,2.1,2.2,2.6,2.1c0.3-0.1,0.7-0.2,1-0.4c-0.2-0.9-0.3-1.7-0.3-2.6c-0.1-0.4,0.1-0.7,0.5-0.8c0.9-0.1,1.8,0,2.7,0.2
		c0.9,0.2,1.7,0.4,2.6,0.5c1.3-0.6,2.5-1.4,3.6-2.4C197.1,223.5,197.5,223.3,195.8,222.9z"></path><path class="st7" d="M197.4,223.2l-0.1-0.1c-0.4-0.4-1.3-0.3-1.8-0.3c-1.8,0-3.6,0.2-5.4,0.7c0,0,4.3-0.6,4.5,0.2
		c0.1,0.6,0,1.3-0.4,1.8c-1.8,1.6-4.6-0.2-6.4-0.9l-3.3-1.4l-0.2,2.7c-0.1,1.2-0.1,2.4,0,3.7c0.2,0.4,2.2,1.4,2.6,1.2s1.7-1,1.7-1
		l-0.2-3.2c0,0,2.7,1.2,4,0.9C193.2,227,198.5,224.7,197.4,223.2z"></path><path class="st7" d="M168,232.6c0,0,1.8,5.5,2.4,5.9s7.4-1.8,6.4-3.1c-0.6-0.8-4.7-0.8-5.1-0.9c0,0,2.1,0.7,2.1,1
		c-0.8,0.7-1.8,1.2-2.8,1.3c-0.1-0.3-3.1-5.1-3.1-5.1l-2.8-1l-2.2,5l1.9,0.8c0,0,0.6,1.5,0.8,1.5c0.7-0.9,1.3-1.8,1.8-2.8
		c0.1,0.7,0.4,1.4,0.7,2c0.3,0.2,2.5,2,3.5,0.6l-1.9-2.1"></path><polyline class="st7" points="162.9,235.9 163.2,237.1 165.6,238.2 165.6,235.9 164.2,235.4 	"></polyline><path class="st10" d="M182,221.8c4.2,1,8.6-0.1,11.9-2.8c0.1-7,0.7-13.4,0.5-20.5c-0.3-11.5-2-22.9-10.1-31.9l-14.7-2.3
		c-6,11.4-7.2,63.4-7.2,63.4s7.5,4.8,13.2,2.4l2.2-43.4c0,0,3.9,4.6,4.6,7.2C183,195.9,181.9,213,182,221.8z"></path></g><g id="Plant"><ellipse class="st9" cx="411.2" cy="322.1" rx="19.5" ry="13.7"></ellipse><ellipse class="st7" cx="411.2" cy="314" rx="14.6" ry="6"></ellipse><path class="st10" d="M410.6,304c0-2.7-0.1-5.4-0.3-8.1c0-0.7-0.1-1.4-0.2-2.1l-0.2-1.4c-0.1-0.4-0.2-1.4-0.2-1.4
		c-0.1-0.5-0.2-1.1-0.3-1.6c-1.6-9.1-5.2-17.8-10.4-25.5c-2,4.7-3,9.8-2.9,14.9c0,1.5,0.1,3,0.2,4.4v0.6c0,0.1,0-0.1,0.1,0.2
		c0.1,0.7,0.3,1.5,0.4,2.2c0.6,2.8,1.4,5.5,2.4,8.1c0.9,2.4,1.9,4.8,3.1,7c1.3,2.5,2.8,5,4.3,7.5c1.2,1.9,2.3,3.6,3.5,5.2
		C410.5,310.8,410.6,307.4,410.6,304z M403,273.7c0-0.3,0-0.7-0.1-1l0,0c0.4,0.4,0.7,0.8,1.1,1.2C403.7,273.8,403.3,273.7,403,273.7
		z"></path><path class="st10" d="M415.7,306.1c1.5-2.3,2.8-4.6,4.1-7c0.3-0.6,0.6-1.2,1-1.9l0.6-1.2l0.6-1.3c0.2-0.5,0.4-1,0.6-1.5
		c3.6-8.6,5.3-17.8,5-27.1c-4.2,2.9-7.8,6.6-10.6,11c-0.8,1.3-1.5,2.5-2.2,3.9l-0.3,0.5c0,0,0-0.1-0.1,0.2c-0.3,0.7-0.6,1.4-0.8,2
		c-1,2.6-1.8,5.3-2.4,8.1c-0.6,2.5-1,5.1-1.2,7.6c-0.3,2.9-0.4,5.7-0.4,8.6c0,2.2,0,4.3,0.1,6.3C411.9,311.7,413.9,309,415.7,306.1z
		 M425.6,276.5c0.2-0.3,0.4-0.6,0.5-0.9l0,0c0.1,0.5,0.2,1,0.3,1.6C426.2,276.9,425.9,276.7,425.6,276.5z"></path><path class="st10" d="M415.6,312.9c1.5-0.8,3-1.6,4.5-2.4l1.2-0.7l0.7-0.5l0.7-0.5l0.8-0.6c4.7-3.5,8.6-7.9,11.5-13
		c-3.2,0.2-6.4,1.1-9.2,2.5c-0.8,0.4-1.6,0.9-2.4,1.4l-0.3,0.2l-0.1,0.1c-0.4,0.3-0.8,0.5-1.1,0.8c-1.4,1.1-2.7,2.3-3.9,3.5
		c-1.1,1.2-2.2,2.4-3.1,3.7c-1.1,1.5-2.1,3-3,4.5c-0.7,1.2-1.4,2.3-2,3.4C411.7,314.6,413.7,313.8,415.6,312.9z M430.5,300.1
		c0.2-0.1,0.4-0.2,0.6-0.3l0,0c-0.1,0.3-0.2,0.6-0.4,1C430.7,300.5,430.6,300.2,430.5,300.1L430.5,300.1z"></path><path class="st10" d="M410.6,304c0-2.7-0.1-5.4-0.3-8.1c0-0.7-0.1-1.4-0.2-2.1l-0.2-1.4c-0.1-0.4-0.2-1.4-0.2-1.4
		c-0.1-0.5-0.2-1.1-0.3-1.6c-1.6-9.1-5.2-17.8-10.4-25.5c-2,4.7-3,9.8-2.9,14.9c0,1.5,0.1,3,0.2,4.4v0.6c0,0.1,0-0.1,0.1,0.2
		c0.1,0.7,0.3,1.5,0.4,2.2c0.6,2.8,1.4,5.5,2.4,8.1c0.9,2.4,1.9,4.8,3.1,7c1.3,2.5,2.8,5,4.3,7.5c1.2,1.9,2.3,3.6,3.5,5.2
		C410.5,310.8,410.6,307.4,410.6,304z M403,273.7c0-0.3,0-0.7-0.1-1l0,0c0.4,0.4,0.7,0.8,1.1,1.2C403.7,273.8,403.3,273.7,403,273.7
		z"></path><path class="st10" d="M415.7,306.1c1.5-2.3,2.8-4.6,4.1-7c0.3-0.6,0.6-1.2,1-1.9l0.6-1.2l0.6-1.3c0.2-0.5,0.4-1,0.6-1.5
		c3.6-8.6,5.3-17.8,5-27.1c-4.2,2.9-7.8,6.6-10.6,11c-0.8,1.3-1.5,2.5-2.2,3.9l-0.3,0.5c0,0,0-0.1-0.1,0.2c-0.3,0.7-0.6,1.4-0.8,2
		c-1,2.6-1.8,5.3-2.4,8.1c-0.6,2.5-1,5.1-1.2,7.6c-0.3,2.9-0.4,5.7-0.4,8.6c0,2.2,0,4.3,0.1,6.3C411.9,311.7,413.9,309,415.7,306.1z
		 M425.6,276.5c0.2-0.3,0.4-0.6,0.5-0.9l0,0c0.1,0.5,0.2,1,0.3,1.6C426.2,276.9,425.9,276.7,425.6,276.5z"></path><path class="st10" d="M415.6,312.9c1.5-0.8,3-1.6,4.5-2.4l1.2-0.7l0.7-0.5l0.7-0.5l0.8-0.6c4.7-3.5,8.6-7.9,11.5-13
		c-3.2,0.2-6.4,1.1-9.2,2.5c-0.8,0.4-1.6,0.9-2.4,1.4l-0.3,0.2l-0.1,0.1c-0.4,0.3-0.8,0.5-1.1,0.8c-1.4,1.1-2.7,2.3-3.9,3.5
		c-1.1,1.2-2.2,2.4-3.1,3.7c-1.1,1.5-2.1,3-3,4.5c-0.7,1.2-1.4,2.3-2,3.4C411.7,314.6,413.7,313.8,415.6,312.9z M430.5,300.1
		c0.2-0.1,0.4-0.2,0.6-0.3l0,0c-0.1,0.3-0.2,0.6-0.4,1C430.7,300.5,430.6,300.2,430.5,300.1L430.5,300.1z"></path></g><g id="Cup"><ellipse class="st12" cx="119.7" cy="227.7" rx="26" ry="12.9"></ellipse><path class="st12" d="M145.6,193.5v35c0,0-19.4,17.9-52,0.3v-35.2"></path><path class="st12" d="M97.5,206c0,0-4.3-6.6-8.4-2.8s-0.5,17,11.4,18.2v5.3c0,0-14.9-2-17-15.4s7.6-15.5,12.4-11.9"></path><ellipse class="st7" cx="119.7" cy="193.6" rx="26" ry="12.9"></ellipse></g><g id="Pen"><path class="st10" d="M182.4,322c-0.2-1.3-1-2.3-2.2-2.9l-6.9-4l-10.7-6.2l-12.8-7.4l-13.6-7.9l-13.2-7.6l-11.5-6.6l-8.5-4.9
		l-4.5-2.6c0,0.1-0.2,0.1-0.2,0.1c-1.7-0.4-3.4,0.6-3.9,2.3c0,0,0,0,0,0c-0.1,0.5-0.1,1.1,0,1.6c0.7,2,2.1,3.8,3.8,5
		c5.2,3.7,10.6,7.1,16.2,10.2v-2c-3.8-2.1-11.9-6.7-15.3-10.2l1.6,1l4.5,2.6l6.8,4l8.4,4.9l9.5,5.6l10,5.9l9.9,5.8l9.2,5.4l8,4.7
		l6.1,3.5c1.9,1.1,3.9,2.6,6,3c1.6,0.1,3.1-1.1,3.2-2.8C182.3,322.2,182.4,322.1,182.4,322z"></path></g><g id="Character_Female_1"><path class="st7" d="M322.1,365.5c0.1,0.4-1.3,7-0.4,7.4c1.8,0.2,3.6,0.2,5.4,0c0.3,0,0.6-7.4,0.6-7.4"></path><path class="st6" d="M305.2,347.5c-0.8-1-1.5-2-2-3.2c-0.1-0.8,1.7-4.3,2-4.2c1.2,0.6,2.4,1.4,3.4,2.3"></path><path class="st7" d="M305.5,341.6c0.1,0.3-1,5.7-0.3,5.9c1.4,0.1,2.9,0.1,4.3,0c0.3-1.9,0.4-3.9,0.5-5.9"></path><path class="st6" d="M310.7,334.7l-5.4,1.5c0,0.1-0.9,5-0.2,5.7c0.9,0.6,1.8,1.2,2.7,1.7c0,1.7,0.1,3.4,0.3,5.1
		c0.3,0.1,0.7,0.1,1,0c0.2-1.8,0.5-5.4,0.5-5.4s1.6-0.5,1.7-1S310.7,334.7,310.7,334.7z"></path><path class="st6" d="M321.7,372.9c0,0-2.3-3-2.5-4s2.1-5.4,2.6-5.3c1.5,0.8,3,1.7,4.3,2.8"></path><path class="st6" d="M328.5,357l-6.8,1.9c0,0.2-1.1,6.2-0.3,7.1s3.4,2,3.4,2.1c0,2.1,0.1,4.2,0.4,6.4c0.4,0.1,0.8,0.1,1.2,0
		c0.3-2.2,0.7-6.7,0.7-6.7s2-0.7,2.1-1.3S328.5,357,328.5,357z"></path><path class="st11" d="M340.5,244.3c-0.1-0.3-0.4-0.5-0.8-0.4h0c0-0.4,0-0.8,0-1.2c0-0.6-0.1-1.3-0.7-1.6c-0.4-0.1-0.8,0-1,0.3
		c-0.1-0.4-0.2-0.7-0.3-1.1c-0.1-0.3-0.3-0.4-0.6-0.4c-0.7,0-1,0.5-1.2,1.2c0-0.1-0.2-0.3-0.3-0.3c-0.1-0.1-0.2-0.1-0.4-0.1
		c-0.5,0-1,0.3-1,0.8c0,0,0,0.1,0,0.1c-0.1,0.4-0.1,0.9,0,1.4c0,0.6,0.1,1.1,0.1,1.6c0,0.4,0,0.8,0,1.2c-0.5-1-1.2-2.2-2.1-1.6
		s-0.1,1.4,0.1,1.9c0.5,1.1,1.1,2.1,1.7,3.1c-0.1,0.5-0.2,1-0.4,1.4c1.6,0.6,3.1,1.4,4.5,2.3c0.5-1.6,1-3.1,1.7-4.6
		C340.7,247.1,340.9,245.7,340.5,244.3z"></path><path class="st7" d="M335.8,241.1c0,1.5-0.1,3-0.2,4.5c0,0.1,0,0.1,0.1,0.1s0.1,0,0.1-0.1c0.1-1.5,0.2-3,0.2-4.5
		c0-0.1,0-0.1-0.1-0.1S335.8,241.1,335.8,241.1L335.8,241.1z"></path><path class="st7" d="M337.8,241.5c-0.1,1.4-0.3,2.7-0.5,4.1c0,0.1,0.2,0.2,0.2,0c0.2-1.4,0.4-2.8,0.5-4.1
		C338.1,241.4,337.9,241.4,337.8,241.5z"></path><path class="st7" d="M339.6,244.1c-0.1,1-0.3,1.9-0.5,2.8c0,0.1,0.2,0.2,0.2,0c0.2-1,0.3-1.9,0.5-2.9
		C339.8,243.9,339.6,243.9,339.6,244.1z"></path><path class="st11" d="M293.3,244.1c-0.1-0.3-0.3-0.6-0.4-1c-0.1-0.2-0.1-0.4-0.1-0.5c0.1-0.5,0.2-1,0.2-1.5c0-1.6-0.4-3.2-1-4.7
		c-0.3-0.8-1.2-1.3-2-1.1c0,0,0,0,0,0c-0.1,0-0.3,0.1-0.4,0.2l-0.4-0.8c-0.8-1.4-1.7-3.9-3.5-4.1c-0.5,0-0.9,0.4-0.9,0.9
		c0,0,0,0,0,0c0,0.1,0,0.2,0,0.3c0.4,0.9,0.7,1.8,1.1,2.7c-0.3-0.3-0.9-0.3-1.2,0l0,0c-0.4,0.4-0.6,1.1-0.3,1.7h-0.2
		c-0.2-0.1-0.4-0.2-0.6-0.2c-0.4,0-0.7,0.2-0.9,0.5c-0.2,0.3-0.3,0.8-0.2,1.2h-0.2c-0.4,0.1-0.6,0.4-0.7,0.8c-0.1,0.2-0.1,0.5,0,0.8
		c-0.1,0.9,4.7,5.4,4.7,5.4l2.8,3.1l4.8-2.3C293.7,245,293.5,244.6,293.3,244.1z"></path><path class="st12" d="M325.5,287.3c-8.5-14.5-16.4-0.3-16.4-0.3c-3.3,4.5-5.8,9.5-7.6,14.7c-2,6.6-1.9,28.1-1,34.6
		c3.5,1.4,11.4,1,15.1-0.1v-25.8c0-0.2,0.2-0.3,0.4-0.2c0.1,0,0.2,0.1,0.2,0.2l0.2,51.2c6.2,0.2,12.3-0.8,18.1-3
		C334.5,358.6,333.5,300.9,325.5,287.3z"></path><path class="st6" d="M293.3,242.7c-2.5,0.6-4.3,2-6.5,3.4c0.8,2.8,9.7,25,20.8,29.7l0.9-15.8C308.6,260,303.6,259.5,293.3,242.7z"></path><path class="st6" d="M332.3,249.5c-0.7,5.6-3.9,10.5-8.6,13.5l1.5,14.5c6.8-4.4,13.9-20.5,15-24.8
		C338.1,250.7,335.3,249.5,332.3,249.5z"></path><path class="st6" d="M306.4,276.6l1.5,13c0,0,10.7,4,18.6,0v-13.2"></path><path class="st7" d="M331.5,272.9c-0.2-0.7-0.5-1.4-1-2c-0.7-0.9-1.6-1.7-2.4-2.4c-0.2-0.2-0.4-0.4-0.5-0.6
		c-0.4-1.1,0.9-2.8,0.8-4.1c-0.3-2-1.5-2.7-2.8-4c-0.7-0.7-1.1-1.5-1.3-2.5c-0.7-1.4-1.3-3-1.6-4.5c-0.9-2.5-2.4-5.4-5.1-6.3
		c-3.1-1-6.5-0.1-8.7,2.2c-1.9,2.1-1.5,5.1-1.7,7.8c0.1,0.2,0.2,0.5,0.2,0.8c0.4,2.6-3.1,2.7-3.4,4.8c0,0.4,0,0.8,0.1,1.2
		c0.3,1.5,0.9,2.8,1.9,4c2.3,3.2-3.1,4.8-3.1,7.7c0.1,2.1,1.4,4.1,3.3,5c4.6,2.3,9.9,2.9,15,1.7
		C324.9,280.8,332.8,277.6,331.5,272.9z M310.7,268.1v-0.2h0.2L310.7,268.1z"></path><polygon class="st7" points="315.6,310.3 303.8,307.7 315.1,316.5 	"></polygon><path class="st7" d="M287.6,237.4c-0.9-1.8-1.7-3.8-2.3-5.7c-0.1-0.3-0.6-0.2-0.5,0.1c0.6,2,1.4,4,2.3,5.9c0.1,0.1,0.3,0.1,0.4,0.1
		C287.6,237.7,287.6,237.5,287.6,237.4z"></path><path class="st7" d="M285.7,238.6c-0.5-0.8-0.9-1.6-1.2-2.4c-0.1-0.3-0.6,0-0.4,0.3c0.4,0.8,0.8,1.7,1.2,2.4c0,0.1,0.2,0.2,0.3,0.2
		C285.7,239,285.8,238.8,285.7,238.6C285.7,238.6,285.7,238.6,285.7,238.6z"></path><path class="st7" d="M283.9,239.9c-0.5-0.7-0.9-1.4-1.2-2.2c-0.1-0.3-0.6-0.2-0.5,0.1c0.3,0.8,0.6,1.6,1.2,2.4
		C283.7,240.4,284.1,240.1,283.9,239.9z"></path><path class="st7" d="M291.4,238.4c-0.5-1-0.9-2-1.3-3c-0.1-0.3-0.6-0.2-0.5,0.1c0.4,1.1,0.9,2.1,1.4,3.1
		C291.1,239,291.5,238.7,291.4,238.4z"></path></g></svg>