<svg transform="scale(1)" version="1.1" id="mxYh63LJln" xmlns="http://www.w3.org/2000/svg" xmlns:xlink="http://www.w3.org/1999/xlink" x="0px" y="0px" viewBox="0 0 500 500" xml:space="preserve" class="pbimage_pbimage__wrapper__image__0LEis false"><title>Wireframe</title><style type="text/css"> .st0{fill:#081A54;} .st1{fill:#1E3180;} .st2{fill:#68E1FD;} .st3{fill:#FFFFFF;} .st4{opacity:0.2;fill:#081A54;enable-background:new;} .st5{fill:#FFD188;} .st6{fill:url(#SVGID_1_-mxYh63LJln);} .st7{fill:url(#SVGID_00000158736267948230459190000015564685844601276568_-mxYh63LJln);} .st8{fill:#FFE4D7;} .st9{fill:#F7734F;} .st10{fill:#F15A24;} .st11{opacity:0.2;fill:#FFFFFF;enable-background:new;} .st12{opacity:0.5;fill:#1E3180;enable-background:new;} .st13{fill:#ACEF78;}
 .st13{fill:#ACEF78;}
 .st12{fill:#1E3180;}
 .st11{fill:#FFFFFF;}
 .st10{fill:#F15A24;}
 .st9{fill:#F7734F;}
 .st8{fill:#FFE4D7;}
 .st5{fill:#eed097;}
 .st4{fill:#081A54;}
 .st3{fill:#FFFFFF;}
 .st2{fill:#99f16b;}
 .st1{fill:#48dd89;}
 .st0{fill:#081A54;}</style><g id="Wall"><polyline class="st0" points="411.1,377.7 423.2,371.7 414.7,365 411.1,370.6 	" fill="#081A54"></polyline><polyline class="st0" points="149.4,50.9 162.5,44.6 163.2,54.2 155.3,57.7 	" fill="#081A54"></polyline><path class="st0" d="M426.4,199.7v166.6c0,3.4-2.7,6.1-6.1,6.1c-1.1,0-2.1-0.3-3-0.8L160.7,225.2c-2.8-1.6-4.6-4.6-4.6-7.9V53.2
		c0-5,4-9,9-9c1.6,0,3.2,0.4,4.5,1.2l249.8,142.4C423.7,190.2,426.4,194.8,426.4,199.7z" fill="#081A54"></path><path class="st1" d="M414.7,205.6v166.6c0,3.4-2.7,6.1-6.1,6.1c-1.1,0-2.1-0.3-3-0.8L149,231c-2.8-1.6-4.5-4.6-4.6-7.9V59
		c0-5,4-9,9-9c1.6,0,3.2,0.4,4.5,1.2l249.8,142.4C412,196,414.7,200.6,414.7,205.6z" fill="#48dd89"></path></g><g id="Wireframev"><polyline class="st0" points="379.9,311.9 379.9,330.3 343.7,309.8 	"></polyline><polyline class="st0" points="221.1,119.8 221.1,239.4 161.7,204.9 	"></polyline><path class="st2" d="M379.9,209v103c-4.6,3.8-9.5,7.2-14.6,10.1l-47.4-27v-122L379.9,209z"></path><path class="st2" d="M163.2,83.5L163.2,83.5l57.9,33.9c0.1,21.1,0.6,44.8-0.7,65.9c-1.1,17.1-3.7,34-7.6,50.6l-51.1-29.1
		c3-17,1.9-34.5,1.4-51.6C162.6,131.3,163.2,105.1,163.2,83.5z"></path><rect class="st3" x="208.1" y="152.6" width="1" height="46"></rect><polygon class="st2" points="301.2,163.5 301.2,286 239.1,250.7 239.1,127.6 	"></polygon><path class="st4" d="M379.9,311.9l-15.1-2.8l0.4,12.9C365.3,322,376.8,316.6,379.9,311.9z"></path><path class="st3" d="M292.9,193.5h-0.1c-0.5,0-1.1-0.2-1.5-0.4l-46-25.7c-1.1-0.6-1.7-1.8-1.7-3v-16.2c0-0.9,0.4-1.8,1-2.4
		c0.6-0.6,1.5-1,2.4-1c0.5,0,1.1,0.1,1.5,0.4l0,0l46.5,26.3c1.1,0.6,1.8,1.8,1.7,3.1l-0.5,15.7c-0.1,1.8-1.6,3.3-3.4,3.3
		L292.9,193.5z M247,145.7c-1.3,0-2.4,1-2.4,2.4v16.3c0,0.9,0.4,1.7,1.2,2.1l45.9,25.7c0.9,0.5,2,0.4,2.8-0.3c0.5-0.4,0.7-1,0.8-1.7
		l0.5-15.7c0-0.9-0.4-1.7-1.2-2.1L248.1,146C247.8,145.8,247.4,145.7,247,145.7L247,145.7z"></path><path class="st3" d="M290.1,249.2L290.1,249.2c-0.3,0-0.5-0.1-0.7-0.1l-18.9-10.2c-0.5-0.3-0.9-0.8-0.9-1.4v-44.2
		c0-0.4,0.2-0.9,0.5-1.2c0.3-0.3,0.7-0.5,1.1-0.5l0,0c0.3,0,0.6,0.1,0.8,0.2l3.1,1.8l15.6,9c0.5,0.3,0.8,0.8,0.8,1.4v43.6
		c0,0.4-0.2,0.9-0.5,1.2C290.9,249,290.5,249.2,290.1,249.2z M271.4,192.6c-0.2,0-0.3,0.1-0.4,0.2c-0.1,0.1-0.2,0.3-0.2,0.4v44.2
		c0,0.2,0.1,0.4,0.3,0.6l18.8,10.2h0.2c0.2,0,0.3-0.1,0.5-0.2c0.1-0.1,0.2-0.3,0.2-0.4v-43.5c0-0.2-0.1-0.4-0.3-0.6l-18.8-10.9
		C271.6,192.6,271.5,192.6,271.4,192.6z"></path><rect class="st3" x="232.7" y="206.5" transform="matrix(0.5583 -0.8296 0.8296 0.5583 -59.3377 302.4432)" width="43.4" height="1"></rect><rect class="st3" x="253.7" y="179" transform="matrix(0.9779 -0.2091 0.2091 0.9779 -37.4705 57.7031)" width="1" height="54.1"></rect><rect class="st3" x="268.2" y="225.8" transform="matrix(0.4915 -0.8709 0.8709 0.4915 -83.3484 362.4457)" width="1" height="53.7"></rect><path class="st3" d="M345.4,251.1L345.4,251.1c-0.3,0-0.5,0-0.7-0.1l-18.9-10.1c-0.5-0.3-0.9-0.8-0.9-1.4v-44.2
		c0-0.9,0.7-1.6,1.6-1.6l0,0c0.3,0,0.5,0.1,0.8,0.2l3.1,1.9l15.6,9c0.5,0.3,0.8,0.8,0.8,1.4v43.5c0,0.4-0.2,0.9-0.5,1.2
		C346.1,251,345.8,251.1,345.4,251.1z M326.6,194.6c-0.2,0-0.3,0.1-0.5,0.2c-0.1,0.1-0.2,0.3-0.2,0.4v44.2c0,0.2,0.1,0.4,0.3,0.6
		l18.8,10.1c0.1,0,0.1,0,0.2,0c0.2,0,0.3-0.1,0.5-0.2c0.1-0.1,0.2-0.3,0.2-0.4v-43.4c0-0.2-0.1-0.4-0.3-0.6l-18.8-10.9
		C326.8,194.6,326.7,194.6,326.6,194.6L326.6,194.6z"></path><rect class="st3" x="346" y="235.1" transform="matrix(0.4915 -0.8709 0.8709 0.4915 -51.9063 434.9165)" width="1" height="53.7"></rect><rect class="st3" x="346" y="242.5" transform="matrix(0.4918 -0.8707 0.8707 0.4918 -58.4042 438.5601)" width="1" height="53.7"></rect><path class="st3" d="M207.3,143.2c-0.5,0-0.9-0.1-1.3-0.4l-29.3-16.4c-1.6-0.9-2.6-2.6-2.6-4.4v-16.5c0-0.5,0.1-0.9,0.3-1.3
		c0.3-0.6,0.9-1.1,1.6-1.2c0.7-0.2,1.4-0.1,2,0.2l29.9,17c1.2,0.7,2,2,2,3.4v17c0,0.5-0.1,0.9-0.3,1.3c-0.3,0.6-0.9,1.1-1.6,1.2
		C207.8,143.2,207.6,143.2,207.3,143.2z M175.1,105.5v16.5c0,1.5,0.8,2.8,2.1,3.5l29.3,16.4c0.4,0.2,0.8,0.3,1.3,0.2
		c0.4-0.1,0.8-0.4,1-0.8c0.1-0.3,0.2-0.5,0.2-0.8v-17c0-1-0.6-2-1.4-2.5l-29.9-17c-0.8-0.4-1.8-0.2-2.3,0.6
		C175.2,105,175.1,105.2,175.1,105.5z"></path><rect class="st3" x="191.7" y="97.5" transform="matrix(0.7595 -0.6505 0.6505 0.7595 -33.7076 154.6046)" width="1" height="50.7"></rect><rect class="st3" x="175.7" y="122.7" transform="matrix(0.9987 -5.076725e-02 5.076725e-02 0.9987 -6.0052 9.9186)" width="33" height="1"></rect><path class="st3" d="M193.2,189.4L193.2,189.4c-0.3,0-0.5-0.1-0.7-0.1L173.6,179c-0.5-0.3-0.9-0.8-0.9-1.4v-44.2
		c0-0.9,0.7-1.6,1.6-1.6l0,0c0.3,0,0.6,0.1,0.8,0.2l3.1,1.8l15.6,9c0.5,0.3,0.8,0.8,0.8,1.4v43.6C194.8,188.7,194,189.4,193.2,189.4
		L193.2,189.4z M174.4,132.8c-0.4,0-0.6,0.3-0.6,0.6v44.2c0,0.2,0.1,0.4,0.3,0.6l18.8,10.2c0.1,0,0.1,0,0.2,0c0.2,0,0.3-0.1,0.4-0.2
		c0.1-0.1,0.2-0.3,0.2-0.4v-43.5c0-0.2-0.1-0.4-0.3-0.5l-18.8-10.9C174.6,132.8,174.5,132.8,174.4,132.8z"></path><rect class="st3" x="200.7" y="147.8" width="1" height="46.6"></rect><polyline class="st5" points="138.2,118.6 155.4,128.3 137.2,138.4 	"></polyline><path class="st3" d="M362.5,250.8c-3.8,0-7.4-3.9-8.2-9.2c-0.4-2.6-0.1-5.2,1-7.5c1.2-3.2,4.8-4.9,8.1-3.6c1.1,0.4,2,1.1,2.7,2
		c3.5,3.9,4.4,9.6,2.2,14.4c-0.9,2-2.7,3.5-4.9,3.9C363.1,250.8,362.8,250.8,362.5,250.8z M361,231.1c-0.2,0-0.5,0-0.7,0l0,0
		c-1.8,0.4-3.4,1.6-4.1,3.4c-1,2.2-1.3,4.6-0.9,6.9c0.8,5.1,4.4,8.8,8,8.3c1.8-0.4,3.4-1.6,4.1-3.4c2-4.4,1.2-9.6-2.1-13.3
		C364.1,231.8,362.6,231.1,361,231.1z"></path></g><path class="st5" id="Base" d="M389,407.4l-80.7,47.2c-5.5,3.2-12.2,3.2-17.7,0L51.4,316.3c-2.9-1.7-3.8-5.3-2.2-8.2
	c0.5-0.9,1.3-1.7,2.2-2.2l82.4-47.4c4.4-2.5,9.9-2.5,14.3,0L389,397c2.9,1.6,3.9,5.3,2.3,8.2C390.7,406.1,389.9,406.9,389,407.4z"></path><g id="Shadow"><linearGradient id="SVGID_1_-mxYh63LJln" gradientUnits="userSpaceOnUse" x1="207.453" y1="-1362.0286" x2="245.533" y2="-1393.2185" gradientTransform="matrix(1 0 0 1 0 1745.78)"><stop offset="0" style="stop-color: rgb(247, 147, 30); stop-opacity: 0;"></stop><stop offset="1" style="stop-color: rgb(241, 90, 36);"></stop></linearGradient><path class="st6" d="M217,405.4l38.7-29.2L216.2,354l-40.8,24.1C185.5,384.1,207.1,398.9,217,405.4z"></path><linearGradient id="SVGID_00000155862382349633692510000011682043286623767444_-mxYh63LJln" gradientUnits="userSpaceOnUse" x1="81.8282" y1="-1421.7614" x2="111.7982" y2="-1449.9513" gradientTransform="matrix(1 0 0 1 0 1745.78)"><stop offset="0" style="stop-color: rgb(247, 147, 30); stop-opacity: 0;"></stop><stop offset="1" style="stop-color: rgb(241, 90, 36);"></stop></linearGradient><path d="M82.9,334.6l40.4-23.4l-24.5-15.1
		L58,320.2C68.1,326.4,72.9,328.2,82.9,334.6z" style="fill: url(&quot;#SVGID_00000155862382349633692510000011682043286623767444_-mxYh63LJln&quot;);"></path></g><g id="Character"><polygon class="st8" points="245,219.2 242.7,223.4 236.9,220.4 238.3,216.1 	"></polygon><path class="st9" d="M234.5,215.7c0,0-13.4,9.6-16.7,19s4.8,19.7,4.8,19.7"></path><polyline class="st1" points="219.8,356.4 213,353.1 215.8,346 221,348.2 	"></polyline><path class="st1" d="M211.1,337.7h7.6c0.2,3.1,0.9,6.8,3.5,8c1,0.6,5.1,1.9,6.4,1.4s5.5-1.5,6-1.1s2.4,1.5-1.5,5
		s-12.3,5.8-13.4,5.4s1.4-7.3-1.8-6.2c-3.4,1.2-1.4,8.8-2,9.4c-1.1,0.6-2.2,1.1-3.4,1.4c-0.9-0.4-1.7-0.9-2.5-1.5
		C210,352.2,210.6,345,211.1,337.7z"></path><polyline class="st1" points="259.6,373.1 253,369.6 256.1,362.6 261.2,365 	"></polyline><path class="st1" d="M250.9,351.8l8.5,2.7c0,4.8,1.5,8.3,6.4,9.5c2.1,0.5,3.7-0.2,5.8-0.5c1.1-0.2,2.3,0.1,3,1
		c1.1,1.5-0.2,2.9-1.4,3.8c-4,3.3-12.5,5.2-13.6,4.8s1.7-7.2-1.5-6.3c-3.5,1-1.9,8.7-2.4,9.3c-1.1,0.6-2.3,1-3.5,1.2
		c-0.9-0.5-1.7-1-2.5-1.6C250,368.5,250,359,250.9,351.8z"></path><path class="st10" d="M225.6,246.6c-3.7,14.3-6.5,28.9-8.4,43.5c-3,23.6-9.8,52.1-9.2,53s6,7,18.3,3.9l14.2-85.4"></path><path class="st10" d="M246.1,265.8c0,0,14,28.3,17.1,45.4s0,45.3,0,45.3s-10.9,4.6-19.9,1.6c0,0-1.3-41.8-2.8-45.6
		s-11.8-19.8-12.2-36.3s3.5-25.7,3.5-25.7"></path><path class="st5" d="M249.6,246.3c0.8-5.7,1.5-11.7-0.2-17.3c-2.8-3.1-5.9-6-9.3-8.4c0,0-4.6-5.6-8.9-2.4
		c-4.7,3.5-10.4,25.6-9.2,34.3c1.2,8,8,9.9,15.9,11.9c2.7,0.7,5.4,1.1,8.2,1.3C247.5,259.3,248.7,252.9,249.6,246.3z"></path><path class="st8" d="M252,203.3c0,0-1.4,15.4-4.1,16.6s-7.5-2-8.3-4.7s0-3.1,2.8-3.2s0.8-0.1,2.5-0.8
		C248.4,209.9,243.4,201.1,252,203.3z"></path><path class="st9" d="M247.9,196.5c-1.4-0.7-2.8-1.1-4.2-1.4c-3.4-0.9-7-0.1-9.6,2.1c-2.8,2.5-4.6,5.9-5,9.6
		c-0.3,3.2,0.4,7.2,3.1,9.4c3.4,2.7,9.3,4.8,11.8,0.8c0.5-0.6,0.8-1.3,1.1-2.1c1.3-3,3-5.7,5.2-8.1c1.6-1.9,2.1-4.5,1.2-6.8
		C250.7,198.5,249.5,197.2,247.9,196.5z"></path><path class="st8" d="M273.8,229.7c-0.9-0.8-2.1-1-3.2-0.5l0.3-0.6c0-0.1,0-0.1,0-0.2c0.7-0.4,0.3-1.6-0.7-1.5
		c-1.6,0.2-2.6,0.4-3.3,2c-0.5,1.3-0.9,2.6-1.2,4c-2.1,2.5-4.5,4.7-7.1,6.7c-0.8,0.6,0.3,1.8,1.1,1.1l0.3-0.3
		c0.1,0.2,0.3,0.4,0.6,0.5c-0.2,0.4,0,0.9,0.4,1.1l0.2,0.1c-0.5,0.5-1,1-1.6,1.5c-0.8,0.8,0.3,1.8,1.1,1.1s1.8-1.3,2.7-2
		c-0.4,0.4-0.8,0.8-1.2,1.2c-0.7,0.8,0.4,1.9,1.1,1.1c1.9-2.1,4-4.1,6.1-6c1.1-0.4,2.2-0.8,3.3-1.4c1.2-0.6,2.8-1.5,2.9-3
		C275.5,233,274.8,231.2,273.8,229.7z"></path><polygon class="st0" points="262.3,230.4 263.2,233 287,222.5 286.2,220.2 	"></polygon><path class="st8" d="M278,227.2c-0.6-0.8-1.2-0.9-2-1.2l0,0l0.7-0.5c0.8-0.6,1.6-1.3,2.1-2.1c0.3-0.6-0.2-1.5-0.9-1.2
		c-2,0.8-3.8,1.8-5.5,3l0,0c-1.6,0.9-2.7,3.6-3.4,4.8c-0.5,0.9,0.9,1.7,1.4,0.8l0.4-0.8c0.1,0.1,0.3,0.3,0.4,0.3
		c0,0.1-0.1,0.3-0.2,0.4c-0.1,0.1-0.1,0.3-0.1,0.5c-0.1,0.1-0.1,0.2-0.1,0.3c-0.1,0.8-0.8,2.2,0.2,2.8c0.1,0.1,0.3,0.1,0.5,0.1
		l-1.3,1.4c-0.3,0.3-0.3,0.8,0,1.1c0,0,0,0,0,0c0.1,0.1,0.3,0.2,0.4,0.2c0,0.4,0.3,0.6,0.7,0.6c0,0,0,0,0,0c0.1,0,0.2,0,0.2-0.1
		c2.2-0.9,5.5-2.3,7-4.4C279.4,231.2,279.1,229,278,227.2z"></path><path class="st9" d="M264.7,233.1l-11.4,10l-0.7-4.6c-0.5-2.8-1.3-5.5-2.5-8c-7.4,3.7-12.5,13.2-9.4,20.7c2.8,4,6.4,7.9,10.6,8.4
		c8.6,1.1,20.7-15.7,20.7-15.7C271.4,239.8,264.7,233.1,264.7,233.1z"></path><path class="st0" d="M286.2,220.2c0,0,4-0.9,4.3-0.4s-3.4,2.6-3.4,2.6l-2.4,0.6L286.2,220.2z"></path><path class="st9" d="M235.9,197.1c0-10.7-18.2-12.6-20.9-2.6c-1.2,4.7,1.6,9.6,6.3,10.8c0.9,0.2,1.8,0.3,2.7,0.3
		c3.7-0.2,7.2-1.2,10.5-2.9"></path></g><g id="Trashbin"><polyline class="st2" points="112.2,268.7 114.9,315.7 136.4,304.1 142.6,251.3 	"></polyline><polyline class="st11" points="112.2,268.7 114.9,315.7 136.4,304.1 142.6,251.3 	"></polyline><polygon class="st2" points="87.1,254.2 92.2,303.5 114.9,315.7 112.2,266.2 	"></polygon><polygon class="st2" points="87.1,254.2 116.8,237.1 142.6,251.3 112.2,268.7 	"></polygon><polygon class="st12" points="87.1,254.2 116.8,237.1 142.6,251.3 112.2,268.7 	"></polygon><polygon class="st8" points="97.5,260.2 102.5,254.7 106.7,254.7 108.8,257.1 113.4,254.2 117.8,256.3 119.1,258.7 123.3,258.4 
		124.9,261.5 112.2,268.7 	"></polygon><polygon class="st5" points="102.5,254.7 104.6,260.2 106.7,254.7 	"></polygon><path class="st5" d="M110,260.8c0.3-0.2,4.9-2.5,4.9-2.5l4.2,0.4l2.4,2.8l-5.8-0.4l-3.5,5.7l-2.3-2.9l-6-1.3L110,260.8z"></path><polygon class="st8" points="117.8,256.3 114.9,251.3 117.1,248 120.6,245.7 122.9,241.8 124.9,241.5 130.6,242.9 133.8,245.3 
		138.7,245.2 139.8,249.7 138.9,253.4 124.9,261.5 119.1,258.7 	"></polygon><polygon class="st5" points="114.9,251.3 120.2,248.8 123,254.2 125.9,251.3 128.3,252.9 129.3,256.1 124.4,259.6 122.1,257.1 
		120.4,258.5 116.9,254.7 	"></polygon><polygon class="st5" points="133.8,245.3 130.9,252.9 136.2,249.1 138.7,245.2 	"></polygon><path class="st5" d="M122.9,241.8c1.7,0.4,3.3,0.9,4.9,1.6c0,1-0.1,1.9-0.4,2.9l-2,3.9l-2.5-1.6l-0.8-1.6l1.9-2L122.9,241.8z"></path></g><g id="Chat"><path class="st13" d="M377.5,147.3l82.2,46.6c1.7,0.9,2.7,2.7,2.6,4.6l-0.9,27.7c-0.1,2.8-2.4,5-5.3,4.9c-0.8,0-1.6-0.2-2.3-0.7
		L372.5,185c-1.6-0.9-2.6-2.6-2.6-4.5v-28.8c0-2.8,2.3-5.1,5.1-5.1c0,0,0,0,0,0C375.8,146.7,376.7,146.9,377.5,147.3z"></path><polyline class="st13" points="369.9,180.6 369.9,196 379.9,186.9 	"></polyline><path class="st5" d="M112.8,103.9l28.2,16.3c0.6,0.4,1,1,1,1.8v78.6c0,1.1-1,2-2.1,2c-0.3,0-0.6-0.1-0.9-0.2L105,184
		c-0.7-0.4-1.1-1-1.1-1.8v-79.9c0-1.1,1-2,2.1-2c0.4,0,0.7,0.1,1,0.3L112.8,103.9z"></path><ellipse class="st3" transform="matrix(0.9618 -0.2738 0.2738 0.9618 -32.5783 112.7824)" cx="387.8" cy="173.1" rx="8.8" ry="12.5"></ellipse><path class="st3" d="M450.3,201.5l-46.7-26.4c-1.2-0.6-2.6-0.2-3.3,1c-0.6,1.1-0.2,2.5,0.8,3.2l46.7,26.4c1.2,0.6,2.6,0.1,3.2-1.1
		C451.7,203.5,451.3,202.2,450.3,201.5L450.3,201.5z"></path><path class="st3" d="M450.3,212l-46.7-26.4c-1.2-0.6-2.6-0.2-3.3,1c-0.6,1.1-0.2,2.5,0.8,3.2l46.7,26.4c1.2,0.6,2.6,0.1,3.2-1.1
		C451.7,214,451.3,212.7,450.3,212z"></path><ellipse class="st3" transform="matrix(0.9304 -0.3667 0.3667 0.9304 -42.8656 54.5172)" cx="122.1" cy="140.1" rx="11" ry="12.7"></ellipse><path class="st3" d="M137.1,171.1l-25.7-14.6c-1.2-0.6-2.6-0.1-3.2,1.1c-0.6,1.1-0.2,2.4,0.8,3.1l25.7,14.6c1.2,0.6,2.6,0.2,3.3-1
		C138.5,173.1,138.2,171.7,137.1,171.1z"></path><path class="st3" d="M137.1,181.6L111.4,167c-1.2-0.6-2.6-0.1-3.2,1.1c-0.6,1.1-0.2,2.4,0.8,3.1l25.7,14.6c1.2,0.6,2.6,0.2,3.3-1
		C138.5,183.6,138.2,182.2,137.1,181.6z"></path></g></svg>