<svg transform="scale(1)" version="1.1" id="VtwQayOPbk" xmlns="http://www.w3.org/2000/svg" xmlns:xlink="http://www.w3.org/1999/xlink" x="0px" y="0px" viewBox="0 0 500 500" xml:space="preserve" class="pbimage_pbimage__wrapper__image__0LEis false"><title>IT Support</title><style type="text/css"> .st0{fill:#FFE41F;} .st1{fill:#68E1FD;} .st2{opacity:0.44;fill:#34323D;enable-background:new;} .st3{opacity:0.1;fill:#34323D;enable-background:new;} .st4{fill:#34323D;} .st5{opacity:0.48;fill:url(#SVGID_1_-VtwQayOPbk);enable-background:new;} .st6{fill:#8FDB5E;} .st7{fill:#1E8C0E;} .st8{fill:#FFFFFF;} .st9{opacity:0.48;fill:url(#SVGID_00000167373503985972382940000007819440526427700902_-VtwQayOPbk);enable-background:new;} .st10{opacity:0.48;fill:url(#SVGID_00000023255814193576563750000012603732066130393990_-VtwQayOPbk);enable-background:new;} .st11{fill:#D3514A;} .st12{fill:#FFC019;} .st13{fill:#FFDAB6;} .st14{fill:#F1756B;} .st15{opacity:0.48;fill:url(#SVGID_00000061461349302725809000000016111017483756945281_-VtwQayOPbk);enable-background:new;} .st16{opacity:0.38;fill:#34323D;enable-background:new;}
 .st16{fill:#34323D;}
 .st14{fill:#F1756B;}
 .st13{fill:#FFDAB6;}
 .st12{fill:#FFC019;}
 .st11{fill:#D3514A;}
 .st8{fill:#FFFFFF;}
 .st7{fill:#1E8C0E;}
 .st6{fill:#8FDB5E;}
 .st4{fill:#34323D;}
 .st3{fill:#34323D;}
 .st2{fill:#34323D;}
 .st1{fill:#68E1FD;}
 .st0{fill:#FFE41F;}</style><path class="st0" id="field" d="M242.9,424L20.6,292.6c-7.1-4-13.2-10.5-6.2-14.8l223.1-128.6c3.4-2.1,8.4-3.4,11.8-1.5l233.4,135.5
	c7.1,4.1,8.4,15.6,1.3,19.7L272.2,423.8C263.2,429,252.1,429.1,242.9,424z"></path><g id="system"><path class="st1" d="M389.7,223c-0.1,0.3-0.8,2.8-1.3,2.2s-3.3,0.7-3.3,0.7l-7.8-9.9l1-3.2h7" fill="#68E1FD"></path><path class="st1" d="M352.2,180.5l-0.7-2.6l-8.1-4.4v-13.9c0-0.3,7.9,4.6,7.9,4.6l0.4-0.8c0.4-2.1,1.3-4.2,2.4-6l-5.7-10.6l7.3-5.5
		l5.5,10.9l0,0c2-0.5,4-0.4,6,0.1v-10.5l10.4,5.8v11c2.1,1.9,3.9,4.1,5.6,6.4l6.3-4l7.1,13.5l-5.6,4.5l0.5,2.3
		c0.7,2.4,1.3,4.8,1.7,7.3l8.4,4.6V207l-8-4.8c-0.3,2.5-1.2,4.9-2.6,7.1l6,10.1l-7.6,5.7l-5.3-10.4h-6.6v10.4l-10-6.1v-10.2
		c-2.3-2.2-4.3-4.7-6-7.4l-6,4.1l-7.2-13.8l6-4.4l-0.6-2.1C353,183.6,352.6,182.1,352.2,180.5z" fill="#68E1FD"></path><polyline class="st1" points="333.3,165.4 342.5,159.8 344.8,163.2 341.2,170.7 	" fill="#68E1FD"></polyline><polyline class="st1" points="345.4,211.3 352.2,208.5 352.2,204.4 	" fill="#68E1FD"></polyline><polygon class="st1" points="367.3,231 377.3,225.2 374.8,217.6 365.8,220.3 	" fill="#68E1FD"></polygon><polygon class="st1" points="355.5,141.3 345.5,147.1 351,158 357,158.1 358.4,147.1 	" fill="#68E1FD"></polygon><ellipse class="st1" transform="matrix(0.9307 -0.3657 0.3657 0.9307 -44.1228 145.3541)" cx="361.7" cy="189.2" rx="4.5" ry="7.8" fill="#68E1FD"></ellipse><polygon class="st1" points="377.5,147.6 367.4,153.4 357,147.6 367,141.9 	" fill="#68E1FD"></polygon><polygon class="st1" points="379.3,166.8 389.3,161 396.4,174.5 386.4,180.3 	" fill="#68E1FD"></polygon><polygon class="st1" points="396.8,219.5 386.8,225.3 379.2,231 389.2,225.2 	" fill="#68E1FD"></polygon><path class="st2" d="M389.7,223c-0.1,0.3-0.8,2.8-1.3,2.2s-3.3,0.7-3.3,0.7l-7.8-9.9l1-3.2h7" fill="#34323D"></path><path class="st1" d="M352.2,180.5l-0.7-2.6l-8.1-4.4v-13.9c0-0.3,7.9,4.6,7.9,4.6l0.4-0.8c0.4-2.1,1.3-4.2,2.4-6l-5.7-10.6l7.3-5.5
		l5.5,10.9l0,0c2-0.5,4-0.4,6,0.1v-10.5l10.4,5.8v11c2.1,1.9,3.9,4.1,5.6,6.4l6.3-4l7.1,13.5l-5.6,4.5l0.5,2.3
		c0.7,2.4,1.3,4.8,1.7,7.3l8.4,4.6V207l-8-4.8c-0.3,2.5-1.2,4.9-2.6,7.1l6,10.1l-7.6,5.7l-5.3-10.4h-6.6v10.4l-10-6.1v-10.2
		c-2.3-2.2-4.3-4.7-6-7.4l-6,4.1l-7.2-13.8l6-4.4l-0.6-2.1C353,183.6,352.6,182.1,352.2,180.5z" fill="#68E1FD"></path><polyline class="st2" points="333.3,165.4 342.5,159.8 344.8,163.2 341.2,170.7 	" fill="#34323D"></polyline><polyline class="st1" points="345.4,211.3 352.2,208.5 352.2,204.4 	" fill="#68E1FD"></polyline><polygon class="st1" points="367.3,231 377.3,225.2 374.8,217.6 365.8,220.3 	" fill="#68E1FD"></polygon><polygon class="st1" points="355.5,141.3 345.5,147.1 351,158 357,158.1 358.4,147.1 	" fill="#68E1FD"></polygon><ellipse class="st1" transform="matrix(0.9307 -0.3657 0.3657 0.9307 -44.1228 145.3541)" cx="361.7" cy="189.2" rx="4.5" ry="7.8" fill="#68E1FD"></ellipse><polygon class="st1" points="379.3,166.8 389.3,161 396.4,174.5 386.4,180.3 	" fill="#68E1FD"></polygon><polygon class="st1" points="396.8,219.5 386.8,225.3 379.2,231 389.2,225.2 	" fill="#68E1FD"></polygon><path class="st2" d="M352.2,180.5l-0.7-2.6l-8.1-4.4v-13.9c0-0.3,7.9,4.6,7.9,4.6l0.4-0.8c0.4-2.1,1.3-4.2,2.4-6l-5.7-10.6l7.3-5.5
		l5.5,10.9l0,0c2-0.5,4-0.4,6,0.1v-10.5l10.4,5.8v11c2.1,1.9,3.9,4.1,5.6,6.4l6.3-4l7.1,13.5l-5.6,4.5l0.5,2.3
		c0.7,2.4,1.3,4.8,1.7,7.3l8.4,4.6V207l-8-4.8c-0.3,2.5-1.2,4.9-2.6,7.1l6,10.1l-7.6,5.7l-5.3-10.4h-6.6v10.4l-10-6.1v-10.2
		c-2.3-2.2-4.3-4.7-6-7.4l-6,4.1l-7.2-13.8l6-4.4l-0.6-2.1C353,183.6,352.6,182.1,352.2,180.5z" fill="#34323D"></path><polyline class="st3" points="345.4,211.3 352.2,208.5 352.2,204.4 	" fill="#34323D"></polyline><polygon class="st3" points="367.3,231 377.3,225.2 374.8,217.6 365.8,220.3 	" fill="#34323D"></polygon><ellipse class="st3" transform="matrix(0.9307 -0.3657 0.3657 0.9307 -44.1228 145.3541)" cx="361.7" cy="189.2" rx="4.5" ry="7.8" fill="#34323D"></ellipse><polygon class="st3" points="379.3,166.8 389.3,161 396.4,174.5 386.4,180.3 	" fill="#34323D"></polygon><polygon class="st3" points="396.8,219.5 386.8,225.3 379.2,231 389.2,225.2 	" fill="#34323D"></polygon><polyline class="st3" points="345.4,211.3 352.2,208.5 352.2,204.4 	" fill="#34323D"></polyline><polygon class="st2" points="367.3,231 377.3,225.2 374.8,217.6 365.8,220.3 	" fill="#34323D"></polygon><path class="st1" d="M342.2,186.3l-0.7-2.6l-8.1-4.4v-13.9c0-0.3,7.9,4.6,7.9,4.6l0.4-0.8c0.4-2.1,1.3-4.2,2.4-6l-5.8-10.6l7.3-5.5
		L351,158h0c2-0.5,4-0.4,6,0.1v-10.5l10.4,5.8v11c2,2,3.9,4.1,5.6,6.4l6.3-4l7.1,13.5l-5.6,4.5l0.5,2.3c0.7,2.4,1.3,4.8,1.7,7.3
		l8.4,4.6v13.8l-8-4.8c-0.4,2.5-1.2,4.9-2.6,7.1l6,10.1l-7.6,5.7l-5.3-10.4h-6.6V231l-10-6.1v-10.2c-2.3-2.2-4.3-4.7-6-7.4l-6,4.1
		l-7.2-13.8l6-4.4l-0.6-2.1C343,189.4,342.5,187.8,342.2,186.3z" fill="#68E1FD"></path><ellipse class="st2" transform="matrix(0.9307 -0.3657 0.3657 0.9307 -44.1228 145.3541)" cx="361.7" cy="189.2" rx="4.5" ry="7.8" fill="#34323D"></ellipse><polygon class="st2" points="396.8,219.5 386.8,225.3 379.2,231 389.2,225.2 	" fill="#34323D"></polygon><polygon class="st1" points="377.5,147.6 367.4,153.4 357,147.6 367,141.9 	" fill="#68E1FD"></polygon><polygon class="st2" points="377.5,147.6 367.5,153.4 357,147.7 367,141.9 	" fill="#34323D"></polygon><polygon class="st1" points="401.4,193.2 391.4,199 391.4,212.8 401.4,207 	" fill="#68E1FD"></polygon><polygon class="st2" points="401.4,193.2 391.4,199 391.4,212.8 401.4,207 	" fill="#34323D"></polygon><path class="st1" d="M319.6,143.9c-0.1,0.2-0.6,2.1-1,1.7s-2.5,0.5-2.5,0.5l-5.8-7.3l0.8-2.4h5.2" fill="#68E1FD"></path><path class="st1" d="M291.8,112.4l-0.5-1.9l-6.1-3.3V96.9c0-0.2,5.9,3.4,5.9,3.4l0.3-0.6c0.3-1.6,0.9-3.1,1.8-4.4l-4.3-7.9l5.4-4.1
		l4,8.1l0,0c1.5-0.3,3-0.3,4.5,0.1v-7.8l7.7,4.3v8.1c1.5,1.5,2.9,3.1,4.1,4.8l4.7-3l5.3,10l-4.2,3.3l0.4,1.7c0.5,1.8,1,3.6,1.3,5.4
		l6.2,3.4v10.4l-5.9-3.5c-0.3,1.9-0.9,3.7-1.9,5.3l4.4,7.5l-5.6,4.2l-3.9-7.7h-4.9v7.7l-7.4-4.5v-7.6c-1.7-1.7-3.2-3.5-4.5-5.5
		l-4.4,3l-5.4-10.2l4.5-3.3l-0.4-1.5C292.4,114.8,292.1,113.6,291.8,112.4z" fill="#68E1FD"></path><polyline class="st1" points="277.8,101.2 284.6,97 286.3,99.6 283.7,105.1 	" fill="#68E1FD"></polyline><polyline class="st1" points="286.7,135.3 291.8,133.2 291.8,130.1 	" fill="#68E1FD"></polyline><polygon class="st1" points="303,149.9 310.5,145.6 308.6,140 301.9,141.9 	" fill="#68E1FD"></polygon><polygon class="st1" points="294.3,83.3 286.8,87.6 290.9,95.7 295.4,95.8 296.4,87.6 	" fill="#68E1FD"></polygon><ellipse class="st1" transform="matrix(0.9307 -0.3657 0.3657 0.9307 -22.7609 117.5114)" cx="298.8" cy="118.8" rx="3.4" ry="5.8" fill="#68E1FD"></ellipse><polygon class="st1" points="310.6,88 303.1,92.3 295.4,88 302.8,83.7 	" fill="#68E1FD"></polygon><polygon class="st1" points="311.9,102.2 319.4,97.9 324.6,108 317.2,112.3 	" fill="#68E1FD"></polygon><polygon class="st1" points="324.9,141.4 317.5,145.6 311.9,149.9 319.3,145.6 	" fill="#68E1FD"></polygon><path class="st2" d="M319.6,143.9c-0.1,0.2-0.6,2.1-1,1.7s-2.5,0.5-2.5,0.5l-5.8-7.3l0.8-2.4h5.2" fill="#34323D"></path><path class="st1" d="M291.8,112.4l-0.5-1.9l-6.1-3.3V96.9c0-0.2,5.9,3.4,5.9,3.4l0.3-0.6c0.3-1.6,0.9-3.1,1.8-4.4l-4.3-7.9l5.4-4.1
		l4,8.1l0,0c1.5-0.3,3-0.3,4.5,0.1v-7.8l7.7,4.3v8.1c1.5,1.5,2.9,3.1,4.1,4.8l4.7-3l5.3,10l-4.2,3.3l0.4,1.7c0.5,1.8,1,3.6,1.3,5.4
		l6.2,3.4v10.4l-5.9-3.5c-0.3,1.9-0.9,3.7-1.9,5.3l4.4,7.5l-5.6,4.2l-3.9-7.7h-4.9v7.7l-7.4-4.5v-7.6c-1.7-1.7-3.2-3.5-4.5-5.5
		l-4.4,3l-5.4-10.2l4.5-3.3l-0.4-1.5C292.4,114.8,292.1,113.6,291.8,112.4z" fill="#68E1FD"></path><polyline class="st2" points="277.8,101.2 284.6,97 286.3,99.6 283.7,105.1 	" fill="#34323D"></polyline><polyline class="st1" points="286.7,135.3 291.8,133.2 291.8,130.1 	" fill="#68E1FD"></polyline><polygon class="st1" points="303,149.9 310.5,145.6 308.6,140 301.9,141.9 	" fill="#68E1FD"></polygon><polygon class="st1" points="294.3,83.3 286.8,87.6 290.9,95.7 295.4,95.8 296.4,87.6 	" fill="#68E1FD"></polygon><ellipse class="st1" transform="matrix(0.9307 -0.3657 0.3657 0.9307 -22.7609 117.5114)" cx="298.8" cy="118.8" rx="3.4" ry="5.8" fill="#68E1FD"></ellipse><polygon class="st1" points="311.9,102.2 319.4,97.9 324.6,108 317.2,112.3 	" fill="#68E1FD"></polygon><polygon class="st1" points="324.9,141.4 317.5,145.6 311.9,149.9 319.3,145.6 	" fill="#68E1FD"></polygon><path class="st2" d="M291.8,112.4l-0.5-1.9l-6.1-3.3V96.9c0-0.2,5.9,3.4,5.9,3.4l0.3-0.6c0.3-1.6,0.9-3.1,1.8-4.4l-4.3-7.9l5.4-4.1
		l4,8.1l0,0c1.5-0.3,3-0.3,4.5,0.1v-7.8l7.7,4.3v8.1c1.5,1.5,2.9,3.1,4.1,4.8l4.7-3l5.3,10l-4.2,3.3l0.4,1.7c0.5,1.8,1,3.6,1.3,5.4
		l6.2,3.4v10.4l-5.9-3.5c-0.3,1.9-0.9,3.7-1.9,5.3l4.4,7.5l-5.6,4.2l-3.9-7.7h-4.9v7.7l-7.4-4.5v-7.6c-1.7-1.7-3.2-3.5-4.5-5.5
		l-4.4,3l-5.4-10.2l4.5-3.3l-0.4-1.5C292.4,114.8,292.1,113.6,291.8,112.4z" fill="#34323D"></path><polyline class="st3" points="286.7,135.3 291.8,133.2 291.8,130.1 	" fill="#34323D"></polyline><polygon class="st3" points="303,149.9 310.5,145.6 308.6,140 301.9,141.9 	" fill="#34323D"></polygon><ellipse class="st3" transform="matrix(0.9307 -0.3657 0.3657 0.9307 -22.7609 117.5114)" cx="298.8" cy="118.8" rx="3.4" ry="5.8" fill="#34323D"></ellipse><polygon class="st3" points="311.9,102.2 319.4,97.9 324.6,108 317.2,112.3 	" fill="#34323D"></polygon><polygon class="st3" points="324.9,141.4 317.5,145.6 311.9,149.9 319.3,145.6 	" fill="#34323D"></polygon><polyline class="st3" points="286.7,135.3 291.8,133.2 291.8,130.1 	" fill="#34323D"></polyline><polygon class="st2" points="303,149.9 310.5,145.6 308.6,140 301.9,141.9 	" fill="#34323D"></polygon><path class="st1" d="M284.4,116.7l-0.5-1.9l-6-3.3v-10.3c0-0.2,5.9,3.4,5.9,3.4l0.3-0.6c0.3-1.6,0.9-3.1,1.8-4.5l-4.3-7.9l5.4-4.1
		l4,8.1l0,0c1.5-0.3,3-0.3,4.5,0.1V88l7.7,4.3v8.2c1.5,1.5,2.9,3,4.1,4.8l4.7-3l5.3,10l-4.2,3.4l0.4,1.7c0.5,1.8,1,3.6,1.3,5.4
		l6.2,3.4v10.3l-5.9-3.5c-0.3,1.9-0.9,3.7-1.9,5.3l4.4,7.5l-5.6,4.2l-3.9-7.7h-5v7.7l-7.4-4.5v-7.6c-1.7-1.7-3.2-3.5-4.5-5.5l-4.4,3
		l-5.4-10.2l4.5-3.3l-0.4-1.5C285,119,284.6,117.9,284.4,116.7z" fill="#68E1FD"></path><ellipse class="st2" transform="matrix(0.9307 -0.3657 0.3657 0.9307 -22.7609 117.5114)" cx="298.8" cy="118.8" rx="3.4" ry="5.8" fill="#34323D"></ellipse><polygon class="st2" points="324.9,141.4 317.5,145.6 311.9,149.9 319.3,145.6 	" fill="#34323D"></polygon><polygon class="st1" points="310.6,88 303.1,92.3 295.4,88 302.8,83.7 	" fill="#68E1FD"></polygon><polygon class="st2" points="310.6,88 303.1,92.3 295.4,88.1 302.8,83.7 	" fill="#34323D"></polygon><polygon class="st1" points="328.3,121.8 320.9,126.1 320.9,136.4 328.3,132.1 	" fill="#68E1FD"></polygon><polygon class="st2" points="328.3,121.8 320.9,126.1 320.9,136.4 328.3,132.1 	" fill="#34323D"></polygon><path class="st4" d="M383.8,245.1h-0.7c-0.6,0-1-0.5-1-1s0.5-1,1-1c1.3,0,2.5,0,3.8-0.2c0.6-0.1,1.1,0.3,1.1,0.9
		c0.1,0.6-0.3,1.1-0.9,1.1l0,0C386.1,245,384.9,245.1,383.8,245.1z M376.3,243.9c-0.1,0-0.2,0-0.3,0c-1.3-0.4-2.6-0.9-3.8-1.4
		c-0.5-0.2-0.7-0.8-0.5-1.3c0.2-0.5,0.8-0.7,1.3-0.5c1.2,0.5,2.4,0.9,3.6,1.3c0.6,0.1,0.9,0.6,0.9,1.1
		C377.4,243.7,376.8,244.1,376.3,243.9L376.3,243.9z M393.6,242.7c-0.4,0-0.7-0.2-0.9-0.6c-0.3-0.5-0.1-1.1,0.4-1.3c0,0,0,0,0,0
		c1.1-0.6,2.2-1.2,3.2-2c0.4-0.3,1.1-0.2,1.4,0.2c0.3,0.4,0.2,1.1-0.2,1.4c-1.1,0.8-2.3,1.5-3.5,2.2
		C393.9,242.7,393.8,242.7,393.6,242.7z M366.5,239.2c-0.2,0-0.4-0.1-0.5-0.2c-1.1-0.7-2.2-1.5-3.3-2.4c-0.4-0.3-0.5-1-0.2-1.4
		c0.3-0.4,1-0.5,1.4-0.2c0,0,0,0,0,0c1,0.8,2.1,1.6,3.1,2.3c0.5,0.3,0.6,0.9,0.3,1.4c0,0,0,0,0,0
		C367.1,239.1,366.8,239.2,366.5,239.2z M401.9,235.8c-0.2,0-0.4-0.1-0.6-0.2c-0.4-0.3-0.5-1-0.2-1.4c0.8-1,1.5-2.1,2.1-3.2
		c0.3-0.5,0.9-0.6,1.4-0.4c0,0,0,0,0,0c0.5,0.3,0.6,0.9,0.4,1.4c0,0,0,0,0,0c-0.7,1.2-1.5,2.3-2.3,3.4
		C402.5,235.7,402.2,235.8,401.9,235.8L401.9,235.8z M358.1,232.4c-0.3,0-0.5-0.1-0.7-0.3c-0.9-0.9-1.8-1.8-2.8-2.8
		c-0.4-0.4-0.4-1,0-1.4c0.4-0.4,1-0.4,1.4,0c0,0,0,0,0,0c1,1,1.9,1.9,2.8,2.8c0.4,0.4,0.4,1,0,1.4
		C358.6,232.2,358.3,232.3,358.1,232.4L358.1,232.4z M407.1,226.3c-0.1,0-0.2,0-0.4-0.1c-0.5-0.2-0.8-0.8-0.6-1.3
		c0.5-1.2,0.9-2.4,1.3-3.7c0.1-0.5,0.7-0.8,1.2-0.7s0.8,0.7,0.7,1.2c0,0,0,0,0,0.1c-0.4,1.3-0.9,2.6-1.3,3.8
		C407.9,226,407.5,226.3,407.1,226.3L407.1,226.3z M350.5,224.5c-0.3,0-0.6-0.1-0.8-0.3c-0.7-0.7-1.3-1.5-2-2.2l-0.7-0.8
		c-0.4-0.4-0.3-1,0.1-1.4c0.4-0.4,1-0.3,1.4,0.1l0,0l0.7,0.8c0.6,0.7,1.3,1.5,2,2.2c0.4,0.4,0.3,1-0.1,1.4
		C351,224.4,350.7,224.5,350.5,224.5L350.5,224.5z M343.3,216.3c-0.3,0-0.6-0.1-0.8-0.4c-0.9-1-1.7-2-2.6-3c-0.4-0.4-0.4-1,0-1.4
		s1-0.4,1.4,0c0,0,0.1,0.1,0.1,0.1c0.9,1,1.7,2,2.6,3c0.4,0.4,0.3,1-0.1,1.4C343.8,216.2,343.6,216.3,343.3,216.3L343.3,216.3z
		 M410,215.8h-0.2c-0.5-0.1-0.9-0.6-0.8-1.2c0,0,0,0,0,0c0.2-1.3,0.4-2.6,0.6-3.9c0.1-0.6,0.6-0.9,1.1-0.9c0.6,0.1,0.9,0.6,0.9,1.1
		c-0.2,1.3-0.4,2.6-0.6,4C410.9,215.5,410.5,215.8,410,215.8L410,215.8z M336.3,208c-0.3,0-0.6-0.1-0.8-0.4c-0.8-1-1.7-2.1-2.5-3.1
		c-0.3-0.4-0.3-1.1,0.1-1.4c0,0,0,0,0,0c0.4-0.3,1.1-0.3,1.4,0.2c0,0,0,0,0,0l2.5,3.1c0.3,0.4,0.3,1.1-0.1,1.4
		C336.8,207.9,336.6,208,336.3,208L336.3,208z M411,205c-0.6,0-1-0.4-1-1c0-1.3-0.1-2.6-0.2-3.9c0-0.6,0.4-1,0.9-1.1s1,0.4,1.1,0.9
		c0.1,1.3,0.2,2.7,0.2,4C412,204.5,411.6,204.9,411,205L411,205z M329.5,199.5c-0.3,0-0.6-0.1-0.8-0.4c-0.8-1-1.6-2.1-2.4-3.1
		c-0.3-0.4-0.3-1.1,0.2-1.4s1.1-0.3,1.4,0.2l2.4,3.1c0.3,0.4,0.3,1.1-0.2,1.4C330,199.4,329.8,199.5,329.5,199.5L329.5,199.5z
		 M409.7,194.2c-0.5,0-0.9-0.3-1-0.8c-0.3-1.2-0.6-2.5-1-3.8c-0.2-0.5,0.1-1.1,0.7-1.2c0.5-0.2,1.1,0.1,1.2,0.7
		c0.4,1.3,0.7,2.6,1,3.9c0.1,0.5-0.2,1.1-0.8,1.2L409.7,194.2z M322.9,190.8c-0.3,0-0.6-0.1-0.8-0.4l-2.4-3.2
		c-0.4-0.4-0.3-1,0.1-1.4c0.4-0.4,1-0.3,1.4,0.1c0,0,0.1,0.1,0.1,0.1l2.4,3.1c0.3,0.4,0.2,1.1-0.2,1.4
		C323.3,190.8,323.1,190.8,322.9,190.8L322.9,190.8z M406.4,183.8c-0.4,0-0.8-0.2-0.9-0.6c-0.5-1.2-1-2.4-1.6-3.6
		c-0.3-0.5-0.1-1.1,0.4-1.4c0.5-0.3,1.1-0.1,1.4,0.4c0,0,0,0.1,0.1,0.1c0.6,1.2,1.1,2.4,1.6,3.7c0.2,0.5,0,1.1-0.5,1.3
		C406.7,183.8,406.6,183.8,406.4,183.8L406.4,183.8z M316.3,182.2c-0.3,0-0.6-0.1-0.8-0.4l-2.4-3.2c-0.3-0.4-0.2-1.1,0.2-1.4
		c0.4-0.3,1.1-0.2,1.4,0.2l2.4,3.2c0.3,0.4,0.2,1.1-0.2,1.4C316.8,182.1,316.5,182.1,316.3,182.2L316.3,182.2z M401.6,174.2
		c-0.4,0-0.7-0.2-0.9-0.5c-0.6-1.1-1.3-2.2-2-3.3c-0.3-0.5-0.1-1.1,0.4-1.4c0.4-0.3,1-0.1,1.3,0.3c0.7,1.1,1.4,2.3,2.1,3.4
		c0.3,0.5,0.1,1.1-0.4,1.4c0,0,0,0,0,0C401.9,174.1,401.7,174.1,401.6,174.2L401.6,174.2z M309.8,173.5c-0.3,0-0.6-0.1-0.8-0.4
		c-0.8-1-1.6-2.1-2.5-3.1c-0.3-0.4-0.3-1.1,0.2-1.4s1.1-0.3,1.4,0.2c0.8,1,1.7,2.1,2.5,3.1c0.3,0.4,0.3,1.1-0.2,1.4
		C310.2,173.4,310,173.5,309.8,173.5L309.8,173.5z M395.5,165c-0.3,0-0.6-0.2-0.8-0.4c-0.8-1.1-1.6-2.1-2.4-3.1
		c-0.3-0.4-0.3-1.1,0.2-1.4c0.4-0.3,1.1-0.3,1.4,0.2c0.8,1.1,1.6,2.1,2.4,3.2c0.3,0.4,0.2,1.1-0.2,1.4c0,0,0,0,0,0
		C396,164.9,395.8,165,395.5,165z M302.9,165c-0.3,0-0.6-0.1-0.8-0.4c-0.8-1-1.7-2-2.5-3c-0.4-0.4-0.3-1.1,0.1-1.4s1.1-0.3,1.4,0.1
		l2.5,3c0.3,0.4,0.3,1-0.1,1.4C303.4,164.9,303.2,165,302.9,165z M295.9,156.6c-0.3,0-0.6-0.1-0.8-0.4c-0.8-1-1.7-2-2.5-3.1
		c-0.4-0.4-0.3-1.1,0.1-1.4c0,0,0,0,0,0c0.4-0.4,1.1-0.3,1.4,0.1c0,0,0,0,0,0l2.5,3.1c0.3,0.4,0.3,1-0.1,1.4
		C296.4,156.5,296.2,156.6,295.9,156.6L295.9,156.6z M388.7,156.6c-0.3,0-0.6-0.1-0.8-0.4l-0.7-0.8l-1.9-2.2c-0.4-0.4-0.3-1,0.1-1.4
		c0.4-0.4,1-0.3,1.4,0.1c0,0,0,0,0,0c0.6,0.7,1.3,1.5,1.9,2.2l0.7,0.8c0.4,0.4,0.3,1.1-0.1,1.4c0,0,0,0,0,0
		C389.2,156.4,389,156.5,388.7,156.6L388.7,156.6z M381.4,148.4c-0.3,0-0.5-0.1-0.7-0.3c-0.9-1-1.8-1.9-2.7-2.9
		c-0.4-0.4-0.4-1,0-1.4c0,0,0,0,0,0c0.4-0.4,1-0.4,1.4,0c0.9,0.9,1.8,1.9,2.7,2.9c0.4,0.4,0.4,1,0,1.4
		C381.9,148.3,381.7,148.4,381.4,148.4L381.4,148.4z M289.1,148.2c-0.3,0-0.6-0.1-0.8-0.4c-0.8-1-1.6-2.1-2.4-3.2
		c-0.3-0.4-0.2-1.1,0.2-1.4c0.4-0.3,1.1-0.2,1.4,0.2c0.8,1,1.6,2.1,2.4,3.1c0.3,0.4,0.3,1.1-0.2,1.4
		C289.5,148.1,289.3,148.1,289.1,148.2L289.1,148.2z M373.9,140.6c-0.3,0-0.5-0.1-0.7-0.3l-2.8-2.8c-0.4-0.4-0.3-1,0.1-1.4
		c0.4-0.3,0.9-0.3,1.3,0l2.8,2.8c0.4,0.4,0.4,1,0,1.4C374.4,140.5,374.1,140.6,373.9,140.6L373.9,140.6z M282.6,139.4
		c-0.3,0-0.6-0.2-0.8-0.4c-0.8-1.1-1.5-2.2-2.2-3.3c-0.3-0.5-0.2-1.1,0.3-1.4c0.5-0.3,1.1-0.2,1.4,0.3c0.7,1.1,1.4,2.2,2.2,3.3
		c0.3,0.5,0.2,1.1-0.3,1.4C283,139.3,282.8,139.3,282.6,139.4L282.6,139.4z M366.1,133c-0.3,0-0.5-0.1-0.7-0.3l-2.9-2.7
		c-0.4-0.3-0.5-1-0.1-1.4s1-0.5,1.4-0.1c0,0,0.1,0.1,0.1,0.1c1,0.9,1.9,1.8,2.9,2.7c0.4,0.4,0.4,1,0,1.4
		C366.6,132.8,366.4,132.9,366.1,133L366.1,133z M277,130c-0.4,0-0.7-0.2-0.9-0.6c-0.6-1.2-1.2-2.4-1.7-3.6c-0.2-0.5,0-1.1,0.5-1.3
		c0.5-0.2,1.1,0,1.3,0.5c0.5,1.2,1.1,2.4,1.7,3.5c0.2,0.5,0.1,1.1-0.4,1.3C277.3,130,277.2,130,277,130z M358.1,125.5
		c-0.3,0-0.5-0.1-0.7-0.3l-2.9-2.7c-0.4-0.4-0.4-1,0-1.4c0.4-0.4,0.9-0.4,1.3-0.1l2.9,2.7c0.4,0.4,0.4,1,0.1,1.4c0,0,0,0,0,0
		C358.7,125.4,358.4,125.5,358.1,125.5L358.1,125.5z M272.8,120c-0.4,0-0.8-0.3-0.9-0.7c-0.5-1.3-0.9-2.6-1.2-3.8
		c-0.2-0.5,0.1-1.1,0.7-1.2c0.5-0.2,1.1,0.1,1.2,0.7c0.4,1.2,0.8,2.5,1.2,3.7c0.2,0.5-0.1,1.1-0.6,1.3C273,120,272.9,120,272.8,120z
		 M350.1,118.2c-0.2,0-0.5-0.1-0.7-0.3l-3-2.6c-0.4-0.3-0.5-1-0.2-1.4c0.3-0.4,1-0.5,1.4-0.2c0,0,0.1,0,0.1,0.1l3,2.6
		c0.4,0.4,0.4,1,0.1,1.4C350.6,118.1,350.4,118.2,350.1,118.2L350.1,118.2z M341.9,111c-0.2,0-0.5-0.1-0.7-0.2l-3-2.6
		c-0.4-0.4-0.5-1-0.1-1.4c0.4-0.4,1-0.5,1.4-0.1l3,2.6c0.4,0.4,0.5,1,0.1,1.4C342.5,110.9,342.2,111,341.9,111z M269.9,109.5
		c-0.5,0-0.9-0.3-1-0.8c-0.2-1.3-0.5-2.7-0.6-4c-0.1-0.6,0.3-1.1,0.9-1.1c0.6-0.1,1.1,0.3,1.1,0.9c0.1,1.2,0.3,2.5,0.6,3.8
		c0.1,0.5-0.2,1.1-0.8,1.2L269.9,109.5z M333.8,103.8c-0.3,0-0.5-0.1-0.7-0.3l-2.9-2.7c-0.4-0.4-0.4-1-0.1-1.4c0,0,0,0,0,0
		c0.4-0.4,1-0.4,1.4-0.1l2.9,2.7c0.4,0.4,0.4,1,0.1,1.4C334.3,103.6,334.1,103.8,333.8,103.8z M269,98.6L269,98.6c-0.6,0-1-0.4-1-1
		c0-1.4,0.2-2.7,0.3-4c0.1-0.5,0.6-0.9,1.1-0.9c0,0,0,0,0,0c0.5,0.1,0.9,0.6,0.9,1.1c-0.2,1.3-0.3,2.6-0.3,3.8
		C269.9,98.3,269.5,98.6,269,98.6z M325.8,96.3c-0.3,0-0.5-0.1-0.7-0.3l-2.9-2.7c-0.4-0.4-0.4-1-0.1-1.4c0.4-0.4,1-0.4,1.4-0.1
		l2.9,2.7c0.4,0.4,0.4,1,0.1,1.4C326.3,96.2,326.1,96.3,325.8,96.3z M317.8,89c-0.2,0-0.5-0.1-0.7-0.2c-1-0.9-2-1.8-3-2.6
		c-0.4-0.3-0.5-1-0.1-1.4c0.3-0.4,1-0.5,1.4-0.1c0,0,0,0,0,0c1,0.9,2,1.7,3,2.6c0.4,0.4,0.4,1,0.1,1.4C318.3,88.9,318,89,317.8,89
		L317.8,89z M271,88c-0.1,0-0.2,0-0.4-0.1c-0.5-0.2-0.8-0.8-0.6-1.3c0.5-1.3,1-2.5,1.6-3.7c0.2-0.5,0.8-0.7,1.3-0.5s0.7,0.8,0.5,1.3
		c0,0,0,0,0,0c-0.6,1.1-1.1,2.3-1.5,3.5C271.8,87.7,271.4,88,271,88z M309.5,81.9c-0.2,0-0.5-0.1-0.6-0.2c-1-0.8-2-1.7-3.1-2.4
		c-0.4-0.3-0.5-1-0.2-1.4c0,0,0,0,0,0c0.3-0.4,0.9-0.5,1.4-0.2l0,0c1,0.8,2.1,1.6,3.1,2.5c0.4,0.3,0.5,1,0.2,1.4c0,0,0,0,0,0
		C310.1,81.7,309.8,81.9,309.5,81.9L309.5,81.9z M276.5,78.7c-0.3,0-0.5-0.1-0.7-0.3c-0.4-0.4-0.4-1,0-1.4c0.9-1,2-1.9,3.1-2.7
		c0.5-0.3,1.1-0.2,1.4,0.3s0.2,1.1-0.3,1.4c-1,0.7-2,1.5-2.8,2.4C277.1,78.6,276.8,78.7,276.5,78.7z M300.3,76c-0.1,0-0.3,0-0.4-0.1
		c-1.2-0.5-2.4-1-3.6-1.4c-0.5-0.2-0.8-0.7-0.6-1.3c0.2-0.5,0.7-0.8,1.3-0.6c1.3,0.4,2.6,0.9,3.8,1.5c0.5,0.2,0.7,0.8,0.5,1.3
		C301.1,75.8,300.7,76,300.3,76z M285.9,73.6c-0.5,0-0.9-0.3-1-0.8c-0.1-0.5,0.3-1.1,0.8-1.2c0,0,0,0,0,0c1.4-0.2,2.8-0.3,4.2-0.3
		c0.6,0,1,0.5,1,1c0,0.6-0.5,1-1,1c-1.2,0-2.5,0-3.7,0.2L285.9,73.6z" fill="#34323D"></path></g><g id="plant"><linearGradient id="SVGID_1_-VtwQayOPbk" gradientUnits="userSpaceOnUse" x1="402.3928" y1="177.2567" x2="426.0428" y2="197.0667" gradientTransform="matrix(1 0 0 -1 0 502)"><stop offset="1.000000e-02" style="stop-color: rgb(255, 228, 31); stop-opacity: 0;"></stop><stop offset="1" style="stop-color: rgb(211, 81, 74);"></stop></linearGradient><path class="st5" d="M435.8,310.9l-5.4-7.5l-7.1-2.5l-10.8,4.8l-16.9,10.6l13.6,9.4C418,320.6,427.2,316.2,435.8,310.9z"></path><path class="st6" d="M408.4,249.1c1.7-0.1,3.4,0.3,5,1c1.6,0.9,2.9,2.3,3.5,4c0.8,1.6,1.1,4,2.7,5c0.6,0.3,1.2,0.8,1.6,1.4
		c0.8,1.1,1,2.6,0.5,3.9c-0.7,1.4-3.7,2.3-5,2"></path><path class="st7" d="M407,249.3c-0.5,0.1-1,0.1-1.5,0.3c-3.4,1-6.1,3.7-7.1,7.1c-0.5,2-0.5,4.1-0.1,6c0.4,1.6,1.3,4.4,3.3,4.5
		c2.6,0.2,3.5-2.3,4.4-4.4s1.7-4.3,3.8-5.1c2.1-0.8,4.5-0.3,6.1,1.4L407,249.3z"></path><path class="st6" d="M419.1,260c-1.6-2.1-2.9-4.3-4.5-6.4c-0.9-1.4-1.9-2.7-3.1-3.8c-3.7-1.8-8.3-0.1-11,3c0.4,0.1,0.9,0.1,1.2,0.2
		c1.6,0.6,3.1,1.7,4.2,3c1.6,1.8,2.9,4,4.3,5.9c2.4,3.1,5.5,5.7,9.5,3.8C422.3,264.6,420.3,261.5,419.1,260z"></path><path class="st7" d="M432.2,233.4c0,0,8.3-0.6,8.1,12.5c-0.1,13.1-12.6,4.5-9.8-3.4"></path><path class="st6" d="M431,246.3c-0.1-4,4.4-6.9,8.2-7.4c-0.8-3.5-3.9-5.9-7.5-5.9c-5.7,0.1-9.9,5.9-10.9,12.7s4.2,11.1,4.2,11.1
		l2.8,2.3C432.7,257.2,430.8,250,431,246.3z"></path><path class="st7" d="M453.6,255.7c-0.1-2.5-0.8-4.9-1.9-7.1c-1.1-2.1-3.1-3.7-5.4-4.2l-4.7,9c0,0,7-12.2,4.1-2.8
		c-2.9,9.4,6.5,19.9,7.8,5.9C453.5,256.2,453.6,256,453.6,255.7z"></path><path class="st1" d="M420.5,279.2c0,0-6.2,4.1-4.5,13.6c0.6,3.3,1.5,6.5,2.8,9.6c1.2,3.1,2.1,7.1,5.2,8.8c2.9,1.6,7.4,1.9,10.3,0.1
		c2.6-1.6,3.6-5.4,4.6-8.1c1.2-3.4,2-6.9,2.4-10.5C444.3,269.7,420.5,279.2,420.5,279.2z"></path><ellipse class="st4" cx="429" cy="280.5" rx="9.1" ry="3.3"></ellipse><path class="st7" d="M429.7,263c-1.3-3.1-3.6-5.6-4.4-9c-0.9-4.6,0.9-9.2,4.7-11.9c0.7-0.5,0-1.7-0.7-1.2c-5.8,4.2-7,11.5-3.5,17.6
		c1,1.9,2.4,3.7,3.1,5.8c0.8,2.8-0.1,4.7-1.4,6.8c0.1-2-0.6-4-2-5.5c-1.5-1.4-3.8-1.6-5.6-2.3c-3.6-1.2-6.8-3.3-7.4-7.4
		c-0.1-0.9-1.4-0.5-1.3,0.4c0.6,3.2,2.7,5.9,5.6,7.2c1.8,0.8,3.6,1.4,5.4,1.9c1.6,0.6,2.9,1.9,3.6,3.5c0.9,2,0.3,3.3-0.2,5.3
		c-0.6,2.5-1.6,4.6,0.1,7c0.5,0.7,1.7,0,1.2-0.7c-2.7-3.8,1.6-7.4,3.1-10.6C430.8,267.7,430.7,265.2,429.7,263z"></path><path class="st7" d="M446.5,254.7c-5.8-1-9.7,3.5-9.4,9c0.1,1.4,0.4,2.8,0.8,4.1c0.3,1,0.9,2.6,0.8,3.6c-0.4,1.7-1.6,3.2-3.3,3.8
		c-2.5,1.2-4.1,2.6-4.9,5.3c-0.1,0.4,0.1,0.7,0.5,0.8s0.7-0.1,0.8-0.5c1.3-4.9,8.1-4.2,8.2-9.5c0-2.6-1.4-5.1-1.5-7.7
		c-0.3-4.6,2.7-8.6,7.6-7.7C447,256.2,447.4,254.9,446.5,254.7z"></path><path class="st6" d="M451.7,248.6c-2.2-4.1-6.3-5.1-10.3-3.9c-0.6,0.2-1.1,0.5-1.6,0.8c-10,7.4-2.9,24.1-1.4,24
		c5.1-0.4,4.6-3.4,6.3-11.8c0.6-3.9,4-6.8,8-6.7C452.4,250.2,452.1,249.3,451.7,248.6z"></path><path class="st7" d="M449.5,245.9c-3.4-0.5-6.8,1.1-8.5,4.1c-3.7,6.1-2.8,13.2-2.3,20c0.1,0.9,1.4,0.9,1.4,0
		c-0.4-4.9-1-9.7,0.3-14.5c0.6-2.4,1.4-5,3.3-6.6c2.1-1.8,5-2.3,7.5-1.1c-0.2-0.2-0.3-0.5-0.5-0.7
		C450.2,246.6,449.8,246.2,449.5,245.9z"></path></g><g id="conversation"><path class="st1" d="M152,80.9c4.7-2.5,8.6,0,8.7,5.5l0.7,43.2c0.1,5.5-3.7,12-8.4,14.5l-63,33.3c-4.7,2.5-8.6,0-8.7-5.5l-0.7-43.2
		c-0.1-5.5,3.7-12,8.4-14.5L152,80.9z"></path><polyline class="st1" points="152.6,138.3 168.3,152.2 140.4,148.2 	"></polyline><path class="st8" d="M91.7,130.3l20.4-10.8l32.3-17.1l7.5-4c1.7-0.9,0.2-3.5-1.5-2.6l-20.4,10.8l-32.3,17.1l-7.5,4
		C88.4,128.7,89.9,131.3,91.7,130.3L91.7,130.3z"></path><path class="st8" d="M91.7,142l20.4-10.8l32.3-17.1l7.5-3.9c1.7-0.9,0.2-3.5-1.5-2.6l-20.4,10.8l-32.3,17.1l-7.5,3.9
		C88.4,140.3,89.9,142.9,91.7,142L91.7,142z"></path><path class="st8" d="M92.2,153.5l19-10.1c1.7-0.9,0.2-3.5-1.5-2.6l-19,10.1C89,151.8,90.5,154.4,92.2,153.5L92.2,153.5z"></path></g><g id="person"><linearGradient id="SVGID_00000062189599973911124120000001746015490181563063_-VtwQayOPbk" gradientUnits="userSpaceOnUse" x1="195.496" y1="135.8941" x2="327.246" y2="217.0241" gradientTransform="matrix(1 0 0 -1 0 502)"><stop offset="1.000000e-02" style="stop-color: rgb(255, 228, 31); stop-opacity: 0;"></stop><stop offset="1" style="stop-color: rgb(211, 81, 74);"></stop></linearGradient><path d="
		M220.4,382.8l-70-22l91.6-50.9l22.8-12.7l57.7,23.8C315.9,325,226.9,378.6,220.4,382.8z" style="opacity: 0.48; fill: url(&quot;#SVGID_00000062189599973911124120000001746015490181563063_-VtwQayOPbk&quot;);"></path><linearGradient id="SVGID_00000076596260928413897030000015616052444586020798_-VtwQayOPbk" gradientUnits="userSpaceOnUse" x1="136.9665" y1="156.313" x2="199.6365" y2="229.013" gradientTransform="matrix(1 0 0 -1 0 502)"><stop offset="1.000000e-02" style="stop-color: rgb(255, 228, 31); stop-opacity: 0;"></stop><stop offset="1" style="stop-color: rgb(211, 81, 74);"></stop></linearGradient><polyline points="
		231.6,301.5 212.7,275.3 188.1,266.7 150.4,283.3 91.7,320.1 150.4,360.8 229.5,316.5 	" style="opacity: 0.48; fill: url(&quot;#SVGID_00000076596260928413897030000015616052444586020798_-VtwQayOPbk&quot;);"></polyline><path class="st11" d="M258.4,206.2l3.6,3l-0.5,92.4l3.2,2.1l4.4-2.8l4.4-94.8C269.5,206.1,262.4,206.3,258.4,206.2z"></path><polyline class="st11" points="215.7,246.6 184.5,265.9 184.1,274 217.1,252.2 	"></polyline><path class="st11" d="M216.1,233.4l16.8,47.3l-2.4,1.6c-0.7-0.3-1.3-0.6-1.9-1c-0.8-0.5-20.9-49.4-20.9-49.4"></path><polyline class="st11" points="184.6,226.2 177.5,255.3 182.3,312.2 184.5,313.4 187.2,311.4 185.3,254.7 191.5,225.7 	"></polyline><path class="st11" d="M220.2,220.2c0,0,1.5,6.2-0.5,9.9s-8.3-4.6-8.3-4.6"></path><polyline class="st11" points="187.5,187.9 190.4,210.9 184.6,214.5 181.8,189.8 	"></polyline><polyline class="st11" points="150.8,207.6 148.9,239.1 148.1,285.2 150.8,286.6 153.3,284.8 156,239.3 157.6,207.1 	"></polyline><path class="st11" d="M155.1,211.2c-1.7,0.6-5.5-1.8-6.7-3.4c-6.7-9-5.8-21.9,4.5-28.6c4.6-3,9.3-6,13.9-9c4.1-2.7,8.4-5.1,12.3-8
		c0.5-0.4,1.1-0.7,1.6-1c2-0.9,4.9,0,6.3,1.7"></path><path class="st12" d="M154.7,210.8c-2.9,0.1-4.8-3.6-5.8-5.8c-2.8-6-4.1-17.7,2.7-21.8c0.3-0.1,0.4-0.4,0.5-0.7l13-8.8l10-6.8
		c1.8-1.2,3.4-2.5,5.2-3.7s3.5-2.6,5.6-1.5c2.3,1.2,2.8,3.6,3.3,6c1.3,5.3,1.4,10.9,0.3,16.2c-0.9,3.6-3.4,6.2-6.4,8.2l-9.3,6.3
		c-5.8,3.9-11.5,7.8-17.3,11.7c-0.3,0.2-0.6,0.4-0.9,0.5C155.2,210.8,154.9,210.8,154.7,210.8z"></path><path class="st11" d="M154.5,235.9l-0.5,0.4c-1.5,0.9-2.8,2-3.8,3.3c-2.5,3.6,0.4,7.3,3.3,9.6c7.8,6,19.3,10.5,29,7.4
		c8.5-2.7,16.3-7.3,23.5-12.4c6-4.2,13.4-9.2,14.5-17.1c0.5-3.6-1.1-6.9-3.6-9.4c-16.9-17-37.6,1.6-52.4,11.5L154.5,235.9z"></path><path class="st11" d="M149.1,237c-0.1,0.1-0.4,5.2,0.1,6.6c1.2,2.4,2.9,4.4,4.9,6.1c1.9,1.3,0.1-8.8,0.1-8.8"></path><path class="st12" d="M154.2,231.6l-0.5,0.4c-1.5,0.9-2.8,2-3.8,3.3c-2.5,3.6,0.4,7.4,3.3,9.6c7.8,6,19.3,10.5,29,7.4
		c8.5-2.7,16.3-7.3,23.5-12.4c6-4.2,13.4-9.2,14.5-17.1c0.5-3.6-1.1-6.9-3.6-9.4c-16.9-17-37.6,1.6-52.4,11.5L154.2,231.6z"></path><path class="st11" d="M174.4,260.5l1.2,88.5l3.2,2.1l4.4-2.8l3.2-87.1C182.4,261.1,178.4,260.8,174.4,260.5z"></path><path class="st11" d="M311.6,233.1l3.2,87.2l4.4,2.8l3.2-2.1l0.6-94.8C319,226.2,315.5,234.1,311.6,233.1z"></path><path class="st11" d="M255,319.2c-2-1.6-4.2-2.9-6.5-4c-2.4-1-9.3-9.1-9.8-9.9s-1.7-4.7-2.9-4.9s-4,1.2-4,1.2s-3.9-4-7.3-2.7
		c0,0-3.1,1.7-3.1,10.6c-0.1,0.1-0.2,0.1-0.3,0.2c-0.2,1.4-0.3,2.8-0.3,4.2c1.2,2.1,3,3.7,5.2,4.7c2.7,1.4,8.7,6.5,12.5,7.5
		s11.4,0.6,13.9-0.4c1.6-0.5,2.8-2,3.1-3.7C255.6,321,255.5,320,255,319.2z"></path><path class="st12" d="M232.4,301.2c0,0-4.6-3.8-8.1-2.4s-3,9.4-3,9.4s0,4.6,5.6,7.2s4.6,5,11.9,7.3s14.9,0.5,16.3-1.7
		s-3.1-4.1-3.4-4.4s-6.8-4.3-8.3-6.3s-4.1-5.4-5-7.1s-1.3-3.2-3-3.1C234.3,300.2,233.3,300.6,232.4,301.2z"></path><path class="st11" d="M245.9,312.5L245.9,312.5c-0.9-0.2-1.9-0.3-2.9-0.4c0.2-0.6,0.4-1.2,0.6-1.7c-0.2-0.3-0.5-0.5-0.7-0.8
		l-0.1,0.1c-0.7-0.1-1.4-0.2-2.1-0.2c0.2-0.4,0.4-0.8,0.6-1.1c0.1-0.1,0.1-0.2,0.1-0.3c0-0.2-0.1-0.3-0.3-0.4
		c-0.1,0-0.2-0.1-0.3-0.1c-0.8-0.1-1.6-0.3-2.5-0.4c0.2-0.4,0.5-0.8,0.8-1.2s-0.5-1-0.9-0.5c-0.4,0.5-0.7,1.1-1.1,1.6
		c-1.5-0.1-3-0.1-4.4,0.3c-0.6,0.1-0.4,1.1,0.3,1c1.2-0.3,2.4-0.4,3.6-0.3c-0.4,0.8-0.7,1.6-1,2.5c-0.5,0.3,0,1.1,0.6,0.8
		c0.8-0.4,1.7-0.6,2.6-0.8c-0.2,0.4-0.4,0.9-0.6,1.3c-0.1,0.2-0.2,0.4-0.3,0.7c0,0.1,0,0.1-0.1,0.2l0,0c-0.3,0.1-0.4,0.4-0.2,0.7
		c0.1,0.2,0.3,0.3,0.6,0.3c1.1-0.3,2.2-0.5,3.4-0.5c-0.3,0.8-0.6,1.6-0.9,2.4c-0.1,0.3,0.1,0.5,0.4,0.6c0.1,0,0.3,0,0.4,0
		c1.4-1,3-1.8,4.5-2.6h0.1c0.3,0.1,0.5-0.1,0.6-0.3c0,0,0,0,0-0.1C246.4,312.9,246.2,312.7,245.9,312.5z M236.9,310
		c0.2-0.7,0.5-1.3,0.8-1.9c0.8,0.1,1.5,0.2,2.3,0.4c-0.2,0.4-0.4,0.7-0.6,1C238.6,309.6,237.7,309.8,236.9,310L236.9,310z
		 M239.2,312.4c0.1-0.4,0.3-0.8,0.4-1l0.5-1c0.8,0,1.6,0,2.3,0.2c-0.2,0.5-0.3,1-0.5,1.5C241,312.2,240.1,312.3,239.2,312.4
		L239.2,312.4z M242.2,314.4c0.2-0.4,0.3-0.9,0.5-1.3c0.6,0,1.1,0,1.7,0.1C243.6,313.6,242.9,314,242.2,314.4L242.2,314.4z"></path><path class="st11" d="M238.6,323.2c-2-1.6-4.2-2.9-6.5-4c-2.4-1-9.3-9.1-9.8-9.9s-1.7-4.7-2.9-4.9s-4,1.2-4,1.2s-3.9-4-7.3-2.7
		c0,0-3.1,1.7-3.1,10.6c-0.1,0.1-0.2,0.1-0.3,0.2c-0.2,1.4-0.3,2.8-0.3,4.2c1.2,2.1,3,3.7,5.2,4.7c2.7,1.5,8.6,6.5,12.5,7.5
		s11.4,0.6,13.9-0.4c1.6-0.5,2.8-1.9,3.1-3.6C239.2,325,239.1,324,238.6,323.2z"></path><path class="st12" d="M216.1,305.2c0,0-4.6-3.8-8.1-2.4s-3.1,9.4-3.1,9.4s0,4.6,5.6,7.2s4.6,5,11.9,7.3s14.9,0.5,16.3-1.7
		s-3.1-4.1-3.4-4.4s-6.8-4.3-8.3-6.3s-4.1-5.4-5-7.1s-1.3-3.2-3-3.1C217.9,304.2,216.9,304.6,216.1,305.2z"></path><path class="st11" d="M229.5,316.5L229.5,316.5c-1-0.2-1.9-0.3-2.9-0.4c0.2-0.6,0.4-1.2,0.6-1.7c-0.2-0.3-0.5-0.5-0.7-0.8
		c0,0-0.1,0-0.1,0.1c-0.7-0.1-1.4-0.2-2.1-0.2c0.2-0.4,0.4-0.8,0.6-1.1c0.1-0.1,0.1-0.2,0.1-0.3c0-0.2-0.1-0.3-0.3-0.4
		c-0.1,0-0.2-0.1-0.3-0.1c-0.8-0.1-1.6-0.3-2.5-0.4c0.3-0.4,0.5-0.8,0.8-1.2s-0.5-1-0.9-0.5c-0.4,0.5-0.7,1.1-1.1,1.6
		c-1.5-0.1-3-0.1-4.4,0.3c-0.6,0.1-0.4,1.1,0.3,1c1.2-0.3,2.4-0.4,3.6-0.3c-0.4,0.8-0.7,1.6-1,2.5c-0.5,0.3,0,1.1,0.6,0.8
		c0.8-0.4,1.7-0.6,2.6-0.8c-0.2,0.4-0.4,0.9-0.6,1.3c-0.1,0.2-0.2,0.4-0.3,0.7c0,0.1-0.1,0.1-0.1,0.2l0,0c-0.3,0.1-0.4,0.4-0.2,0.7
		c0.1,0.2,0.3,0.3,0.6,0.3c1.1-0.3,2.2-0.5,3.4-0.5c-0.3,0.8-0.6,1.6-0.9,2.4c-0.2,0.4,0.4,0.8,0.7,0.6c1.4-1,3-1.8,4.5-2.6h0.1
		c0.3,0.1,0.5-0.1,0.6-0.3c0,0,0,0,0,0C230.1,316.9,229.8,316.7,229.5,316.5z M220.5,314c0.2-0.7,0.5-1.3,0.8-1.9
		c0.8,0.1,1.5,0.2,2.3,0.4c-0.2,0.4-0.4,0.7-0.6,1C222.2,313.5,221.4,313.7,220.5,314L220.5,314z M222.8,316.4
		c0.1-0.4,0.3-0.8,0.4-1l0.5-1c0.8,0,1.5,0,2.3,0.2c-0.2,0.5-0.3,1-0.5,1.5C224.6,316.2,223.7,316.3,222.8,316.4L222.8,316.4z
		 M225.8,318.4c0.2-0.4,0.3-0.9,0.5-1.3c0.6,0,1.1,0,1.7,0.1C227.2,317.6,226.5,318,225.8,318.4L225.8,318.4z"></path><path class="st1" d="M202.1,205c1.1,2.3,34.9,34.7,39.6,43.8c4.7,9.1-3.2,52.5-3.2,52.5s-9.4,4.2-16.8-0.4c0,0-0.4-35.9-2.6-38.4
		s-28.3-23.7-31-28s7.5-28.6,7.5-28.6"></path><path class="st1" d="M194.3,210.1c1.1,2.3,27.5,35.6,32.2,44.7s-3.2,52.5-3.2,52.5s-9.4,4.2-16.8-0.4c0,0-0.4-35.9-2.6-38.4
		s-28.7-23.4-31-28c-7-14.1,0.5-32.2,0.5-32.2"></path><path class="st6" d="M208,192c0.5-5.4,1.8-10.7,2.2-16.1c1-12.2-6.1-19.8-17.1-21.7c-6.6,3.6-13.5,9.2-16.8,12.9
		c-5,5.6-4.6,29-4.6,29c1,6.5,0.4,11.4,0.7,14.9c8.2,8.4,23.2,4.2,33.3-1.9C207.5,203.6,207.4,197.8,208,192z"></path><path class="st13" d="M189.1,152l-0.6,8.1c0,0,2.5,2,9.8-0.3l1-4.7"></path><path class="st13" d="M205.7,140.5c0,0-1.2,16.5-5.4,17.3s-8.8-1.3-10.2-3.4s-4.5-12.5-3-14.4S203.4,137.5,205.7,140.5z"></path><path class="st12" d="M208.4,134.6c-0.9-0.4-1.9-0.5-2.9-0.5c-0.3-1.4-1.1-2.7-2.3-3.6c-2.1-1.5-4.8-1.7-7.1-0.6
		c-0.4,0.2-0.8,0.5-1.1,0.8c-1.3-1.2-3-1.8-4.7-1.6c-2,0.2-3.7,1.5-4.4,3.4c-0.2,0.5-0.2,1.1-0.2,1.6c-0.3,0-0.5,0.1-0.8,0.1
		c-1.7,0.4-3.1,1.7-3.6,3.3c-0.5,1.4-0.3,3,0.6,4.3c-1.2,1.2-1.5,3-0.9,4.5c0.6,1.6,2.1,2.8,3.8,3c-0.3,0.8-0.3,1.6-0.1,2.4
		c0.9,2,3.2,2.8,5.4,3.3c0.1-1,0.2-2.1,0.2-3.1c0-0.1,0-0.2,0.1-0.3c-0.7-0.7-1.4-1.4-1.9-2.3c-0.7-1.1-1.2-2.8,0-3.8
		s2.9-0.4,3.7,0.8c0.2-0.5,0.5-1,0.7-1.5l0,0c1.1-2.6,3.8-2.9,6.4-2.9c3.9,2.1,9.7,3.6,11.3-1.4
		C211.4,138.3,210.8,135.6,208.4,134.6z"></path><path class="st11" d="M218.1,284.4l3.6,3l-0.6,92.4l3.2,2.1l4.4-2.8l4.4-94.8C229.1,284.4,222.1,284.6,218.1,284.4z"></path><polygon class="st11" points="323.1,217.2 323.1,226.2 317.6,226.2 	"></polygon><polygon class="st11" points="170.8,258.7 170.8,251.1 175.6,257.2 	"></polygon><path class="st11" d="M247,204.3L181,242c0,0-21.2,14.2-2.4,30.7s44.8,16.5,61.3,9.4s75.5-42.5,75.5-42.5s22.5-17-9.5-35.4
		S247,204.3,247,204.3z"></path><path class="st14" d="M247,197l-66,37.7c0,0-21.2,14.1-2.4,30.7s44.8,16.5,61.3,9.4s75.5-42.5,75.5-42.5s22.5-17-9.5-35.4
		S247,197,247,197z"></path><linearGradient id="SVGID_00000088814402562957631000000008240486711251492002_-VtwQayOPbk" gradientUnits="userSpaceOnUse" x1="198.5656" y1="235.7991" x2="250.1956" y2="279.0191" gradientTransform="matrix(1 0 0 -1 0 502)"><stop offset="1.000000e-02" style="stop-color: rgb(52, 50, 61); stop-opacity: 0;"></stop><stop offset="1" style="stop-color: rgb(52, 50, 61);"></stop></linearGradient><path d="
		M241,240c-1.1-1.5-2.3-2.8-3.6-4c-0.9-0.7-1.9-1.3-2.8-1.9c-2.9-1-5.2-3.2-6.3-6l-15.6-4.5l-33.2,18.8l46.9,29.8
		c10.2-5.9,27.8-15.6,38-21.4C263.2,248.6,242.5,242,241,240z" style="opacity: 0.48; fill: url(&quot;#SVGID_00000088814402562957631000000008240486711251492002_-VtwQayOPbk&quot;);"></path><polyline class="st1" points="240.5,264.3 191.4,235.7 256.5,198.3 305.5,224.8 	"></polyline><polyline class="st16" points="240.5,264.3 191.4,235.7 256.5,198.3 305.5,224.8 	"></polyline><path class="st13" d="M214.9,220.7l5.1,1c0,0,6,1.2,5.9,2s-5.9,0.8-5.9,0.8s8.3,2.8,8.6,3.8s-1.5,1-1.5,1s1.3,1.5,0.4,2.6
		s-2.2,0-2.2,0s2.1,1.5,0.3,2.1s-5.5-2.5-5.5-2.5c-0.1,0.8-0.4,1.5-1,2.1c-0.9,0.7-10.6-6.8-12.1-9.1"></path><path class="st7" d="M186.5,193.7c0,0,27.8,23.7,28.4,25.6s-6.3,5.8-10.6,6.8c-2.2,0.5-5.3-1.4-7.1-2.2c-4-1.9-7.8-4.2-11.4-6.7
		c-3.9-2.5-7.4-5.4-10.7-8.7c-3.8-3.9-5.5-7.6-5.4-13.2c0.2-8.5,0.8-20.2,6-27.3c0,0,3.9-5.4,8.6-1.2
		C184.2,166.8,191.6,173.3,186.5,193.7z"></path><path class="st13" d="M237.9,202.9c0.4,0,11.3,4,11.3,4l9.2,6.2c-0.3,0.5-0.8,0.8-1.4,0.8c0,0,1,0.8,0.1,1.4
		c-0.5,0.3-1.1,0.3-1.6,0c-0.5,0.6-1.3,1-2.1,1c-1.2-0.1-7.7-4.9-8.3-4.3s3.1,2.5,2.3,3.6s-4.2-0.9-5.3-1.9s-6.8-6.2-6.8-6.2"></path><path class="st7" d="M209.3,166.8c0,0,6.5,19.7,8.8,22s22.9,13.1,22.9,13.1s0.2,7.7-7.1,10.2c0,0-20.3-4.3-26.9-13.9"></path><path class="st1" d="M253.2,207.9c0,0-12.9,57.1-12.7,56.4s63.6-34.8,64-36s16.8-59.2,16.8-59.2L253.2,207.9z"></path><path class="st4" d="M201.5,154c-0.2-0.8-1-1.3-1.7-1.1c-0.1,0-0.2,0-0.3,0.1c-0.3,0.2-0.6,0.5-0.7,0.8c-2.4-0.1-5.2-0.7-6.8-2.5
		c1.9-1.1,3.1-3.1,3.1-5.3c-0.3-3-2.9-5.2-5.9-5c-3,0.3-5.2,2.9-5,5.9c0.2,2.8,2.6,5,5.4,5c0.4,0,0.7,0,1.1-0.1
		c1.8,2.4,5.2,3.2,8.2,3.3c0.1,0.1,0.1,0.2,0.2,0.3c0.1,0.1,0.2,0.2,0.4,0.2c0.1,0.1,0.3,0.1,0.4,0.2c0.8,0.1,1.5-0.5,1.6-1.3
		C201.5,154.3,201.5,154.1,201.5,154z"></path><path class="st4" d="M190.8,141.9c0,0,0.6-9.6,4.2-11.1c0,0-1.7-3.1-6.5-1.1c0,0-3,4.7-1.5,12.2"></path><ellipse class="st8" cx="189.1" cy="146.2" rx="2.5" ry="2.8"></ellipse><ellipse class="st8" transform="matrix(0.4476 -0.8942 0.8942 0.4476 -37.3158 372.2295)" cx="282.6" cy="216.3" rx="12" ry="6.5"></ellipse></g></svg>